<svg width="1024" height="576" viewBox="0 0 1024 576" fill="none" xmlns="http://www.w3.org/2000/svg">
<g id="file (4) 1">
<path id="Vector" d="M322.553 329.481C340.966 322.993 342.983 315.978 336.931 298.465C334.458 291.311 332.068 284.352 332.59 276.641C332.876 272.415 331.234 268.174 327.96 266.016C319.914 260.713 319.655 252.091 317.379 244.263C317.01 242.994 316.891 241.641 316.755 240.317C315.966 232.588 314.81 231.879 307.249 234.428C302.359 236.077 297.514 237.915 292.532 239.22C285.188 241.144 279.382 245.506 273.686 250.169C266.316 256.2 258.669 261.815 249.715 265.331C247.184 266.325 246.197 268.015 246.253 270.711C246.382 276.875 246.363 283.043 246.307 289.208C246.294 290.583 246.821 292.178 245.224 293.46C243.155 291.832 243.731 289.538 243.721 287.524C243.648 272.384 243.448 257.251 242.729 242.123C242.551 238.362 241.522 236.96 237.604 237.974C234.407 238.801 231.061 239.111 227.761 239.469C222.931 239.992 221.358 242.875 221.585 247.343C222.445 264.3 223.264 281.259 224.094 298.218C224.149 299.35 224.39 300.54 223.361 301.412C221.522 301.373 221.724 299.966 221.652 298.9C220.4 280.294 219.4 261.678 219.591 243.016C219.617 240.551 220.241 239.128 222.883 238.324C229.152 236.414 235.57 235.742 242.036 235.196C244.952 234.95 245.301 236.815 245.31 239.005C245.336 245.499 245.233 251.998 246.042 258.463C246.225 259.926 245.927 261.486 247.322 263.391C253.512 261.855 258.634 257.848 263.913 254.298C267.771 251.703 271.352 248.676 274.938 245.7C280.022 241.48 285.734 238.62 292.084 236.806C297.841 235.161 303.44 232.961 309.197 231.318C316.512 229.23 318.092 230.232 319.087 237.74C319.567 241.369 320.283 244.904 320.997 248.478C322.251 254.755 324.497 259.914 329.768 264.042C335.3 268.375 335.152 275.254 335.246 281.562C335.312 286.022 336.276 290.077 338.087 294.081C341.119 300.784 342.485 307.893 342.437 315.916C346.097 312.288 349.196 309.141 352.376 306.079C359.221 299.489 367.814 298.602 375.681 303.761C377.401 304.889 379.076 304.805 380.926 304.628C382.422 304.485 384.036 303.066 385.837 305.26C382.691 306.492 379.656 307.477 376.81 308.852C373.87 310.272 371.114 312.072 367.574 314.11C367.946 309.208 372.805 309.537 373.952 306.584C370.21 301.764 365.739 300.64 359.547 304.372C348.322 311.138 338.429 322.172 344.998 337.746C349.574 348.594 353.028 359.85 353.876 371.849C354.25 377.148 353.955 382.086 352.444 387.064C349.884 395.497 349.024 404.035 351.357 412.641C353.825 421.751 355.91 423.167 365.369 423.631C375.299 424.117 384.901 422.172 394.495 420.089C400.968 418.684 407.352 417.356 413.306 413.898C418.167 411.075 423.904 410.379 429.765 411.395C439.723 413.12 449.366 411.262 458.609 407.563C471.722 402.315 484.922 401.06 498.616 405.133C511.975 409.106 525.692 410.468 539.605 409.633C541.746 409.504 544.008 409.345 545.966 408.573C555.949 404.636 565.796 405.178 576.129 407.652C588.485 410.61 600.944 408.41 613.158 405.603C616.475 404.841 619.599 404.614 622.994 405.189C633.962 407.047 644.011 403.129 654.074 399.646C656.05 398.962 656.683 397.435 655.998 395.216C650.8 378.366 651.701 361.088 652.358 343.797C652.832 331.327 654.459 318.906 653.765 306.381C653.481 301.258 652.034 296.533 649.695 292.097C647.209 287.383 643.461 285.947 638.429 287.485C639.86 291.862 641.284 296.289 640.657 301.677C637.453 299.323 638.581 296.307 637.891 293.977C635.794 286.889 633.67 285.004 626.397 286.385C617.768 288.023 609.246 290.223 599.833 292.373C604.936 296.053 610.345 294.907 615.618 296.425C613.249 298.769 610.982 298.397 608.748 297.862C600.99 296.003 593.236 294.126 585.496 292.193C576.019 289.826 566.361 289.991 556.707 289.978C555.118 289.976 553.401 290.816 551.898 289.407C552.366 286.88 554.448 287.693 555.859 287.678C566.84 287.56 577.786 287.405 588.582 290.328C595.069 292.083 601.431 289.447 607.717 288.037C617.595 285.82 627.271 283.006 637.653 283.542C646.13 283.981 650.938 286.724 653.859 294.895C657.495 305.072 656.634 315.561 655.82 326.012C654.643 341.114 653.793 356.192 654.82 371.364C655.406 380.011 655.482 388.639 658.894 396.818C659.895 399.219 658.193 400.591 656.255 401.456C653.797 402.554 652.865 404.441 652.773 406.998C652.65 410.408 653.773 412 657.543 411.153C660.88 410.404 664.197 408.968 668.407 409.956C666.72 412.068 664.658 412.201 662.693 412.603C643.672 416.498 625.031 421.486 608.897 432.936C602.808 437.258 597.679 442.398 597.302 450.639C596.985 457.54 600.733 462.359 605.449 466.483C615.837 475.567 628.425 480.557 641.38 484.487C660.06 490.155 679.241 493.177 698.706 494.786C722.017 496.713 745.327 496.68 768.55 494.492C792.108 492.272 815.372 488.143 837.281 478.517C843.715 475.689 849.739 472.234 855.225 467.77C864.442 460.27 869.148 449.629 859.092 438.501C858.581 437.935 858.34 437.126 857.959 436.401C859.907 435.249 860.618 436.727 861.439 437.614C869.021 445.807 869.05 456.362 861.568 465.178C858.18 469.171 854.093 472.372 849.55 474.839C846.165 476.677 845.726 478.48 847.41 481.924C853.206 493.775 857.226 506.288 860.686 519.007C861.664 522.601 860.764 524.694 857.601 526.336C854.187 528.11 850.704 529.686 847.012 530.751C840.561 532.612 838.3 531.6 835.549 525.511C832.168 518.026 830.55 510.01 828.686 502.071C827.699 497.863 826.665 493.666 825.677 489.458C825.267 487.712 824.728 486.078 822.427 486.746C820.36 487.346 820.214 488.918 820.644 490.752C822.082 496.895 823.373 503.074 824.928 509.187C825.807 512.64 824.752 514.709 821.326 515.518C819.226 516.015 817.087 516.345 814.979 516.809C810.388 517.82 807.913 515.559 807.085 511.372C806.087 506.331 805.052 501.246 804.75 496.138C804.524 492.318 803.058 491.624 799.753 492.306C789.493 494.423 779.12 495.834 768.7 496.855C747.44 498.938 726.144 498.925 704.834 497.736C689.572 496.884 674.498 494.468 658.288 491.642C658.288 496.81 658.461 501.389 658.246 505.949C657.951 512.203 655.626 514.443 650.113 514.3C642.746 514.108 640.928 511.918 642.138 504.625C642.817 500.531 643.39 496.41 644.308 492.368C645.003 489.307 644.175 487.779 641.065 486.908C637.431 485.889 637.031 488.413 636.577 490.613C634.259 501.869 631.284 512.952 628.201 524.016C625.287 534.472 620.705 535.331 609.83 531.608C606.81 530.574 605.755 528.195 606.077 524.845C607.455 510.511 611.367 496.757 615.697 483.14C617.041 478.917 616.31 476.843 612.534 474.775C606.649 471.554 601.506 467.293 597.726 461.609C595.06 457.6 594.566 452.982 594.384 448.398C517.665 457.398 440.942 459.09 363.774 459.639C364.482 456.59 365.842 457.065 366.912 457.048C398.055 456.56 429.226 456.734 460.334 455.421C487.594 454.27 514.901 453.452 542.096 451.344C558.612 450.064 575.215 448.724 591.586 445.751C593.455 445.411 595.218 445.127 596.201 443.276C602.142 432.091 612.636 426.631 623.494 421.697C630.328 418.592 637.443 416.24 644.716 414.35C651.068 412.698 651.634 411.535 649.704 404.336C644.429 405.466 639.121 406.602 633.815 407.742C633.164 407.882 632.48 408.266 631.874 408.164C616.622 405.58 602.025 411.894 586.916 411.446C580.211 411.247 573.663 410.347 567.257 408.492C563.795 407.489 560.422 407.04 556.975 408.28C537.589 415.257 518.213 412.898 499.027 407.701C485.455 404.024 472.53 404.838 459.458 409.897C449.642 413.696 439.44 415.798 428.677 413.61C423.352 412.527 418.185 414.371 413.214 416.558C395.687 424.272 377.363 427.24 358.304 425.207C352.417 424.579 350.832 419.909 349.436 415.085C346.884 406.26 346.855 406.53 337.81 407.945C331.557 408.924 325.162 409.849 318.846 407.576C324.419 406.196 330.213 407.125 335.757 405.78C337.206 405.428 338.677 405.162 340.148 404.914C345.118 404.075 348.497 402.04 347.863 396.105C347.661 394.22 348.375 392.135 349.041 390.275C353.927 376.626 351.133 363.438 346.832 350.312C343.86 341.238 339.298 332.547 340.895 321.187C335.184 326.869 329.492 329.625 323.43 332.06C317.242 334.546 311.125 335.875 304.506 335.429C299.939 335.12 296.764 337.962 293.636 340.79C289.814 344.247 286.19 347.997 281.091 349.658C275.077 351.617 267.984 347.215 267.826 341.335C270.115 341.275 270.638 343.421 271.844 344.611C275.28 348.004 278.933 348.646 283.119 346.059C286.413 344.022 289.131 341.332 291.906 338.688C296.341 334.46 301.519 332.126 307.765 332.882C312.985 333.514 317.569 331.529 322.553 329.481ZM828.527 492.116C830.672 500.312 832.584 508.579 835.014 516.69C839.13 530.432 839.904 532.209 855.424 524.641C858.383 523.198 858.928 521.322 858.016 518.178C855.141 508.263 852.053 498.45 847.905 488.969C843.444 478.773 843.644 478.939 833.281 482.744C828.785 484.395 826.524 486.463 828.527 492.116ZM629.518 483.098C628.294 482.583 627.071 482.067 625.847 481.552C619.782 479.002 619.735 478.987 617.716 485.303C613.73 497.771 610.213 510.357 608.584 523.394C608.377 525.048 608.082 526.697 609.257 528.153C612.896 532.663 622.594 531.539 624.573 526.212C629.087 514.059 631.587 501.349 634.54 488.769C635.372 485.222 633.009 484.096 629.518 483.098ZM807.215 497.753C807.922 501.992 808.513 506.254 809.363 510.464C810.551 516.34 814.67 514.311 818.4 513.798C822.554 513.227 823.13 510.772 822.357 507.388C821.323 502.868 820.257 498.353 819.119 493.858C818.251 490.432 817.228 487.658 812.42 489.297C808.417 490.661 804.935 491.603 807.215 497.753ZM645.396 497.867C645.047 500.653 644.638 503.435 644.365 506.229C643.996 509.998 645.73 511.626 649.561 511.733C653.48 511.843 655.581 510.434 655.627 506.393C655.672 502.406 655.593 498.411 655.841 494.437C656.081 490.605 653.343 490.218 650.754 489.651C647.512 488.94 646.827 491.214 646.334 493.654C646.104 494.791 645.783 495.909 645.396 497.867Z" fill="black"/>
<path id="Vector_2" d="M496.022 209.248C478.755 210.592 461.948 210.141 445.154 210.416C440.828 210.487 438.689 209.829 438.255 204.71C437.53 196.142 438.06 194.239 445.725 190.903C445.604 170.547 445.709 150.139 443.966 129.742C443.004 118.485 443.3 107.122 442.927 95.8106C442.773 91.1331 445.394 89.3434 449.523 88.7134C470.543 85.5066 491.709 83.609 512.861 81.5716C524.294 80.4703 535.727 79.4656 547.211 80.5909C550.791 80.9417 552.798 79.7161 553.678 76.0906C554.7 71.8761 557.819 69.4963 561.904 71.1101C576.862 77.0187 591.884 74.7881 606.985 72.2722C613.376 71.2073 619.922 68.9326 626.158 69.567C635.893 70.5573 645.319 68.1722 654.905 68.6981C658.397 68.8897 661.864 69.0543 665.25 67.7129C666.254 67.315 667.688 67.2675 668.672 67.6728C674.998 70.2774 681.108 69.7494 687.65 67.9488C695.159 65.8818 699.666 71.0419 698.105 79.5772C696.872 86.3234 697.654 93.1479 696.474 99.9074C695.338 106.412 696.748 112.837 699.674 118.814C702.489 124.563 702.865 130.673 702.221 136.854C700.787 150.624 700.871 164.363 702.231 178.136C702.568 181.554 702.419 185.015 701.716 188.533C700.397 195.139 702.521 201.724 702.891 208.339C703.011 210.471 703.347 212.619 703.306 214.777C703.237 218.467 701.186 220.555 697.644 220.227C691.718 219.679 685.55 219.715 679.897 220.065C671.205 220.604 661.724 220.532 653.847 222.968C642.034 226.623 630.78 227.627 618.816 226.574C612.258 225.998 605.617 226.42 599.02 226.202C591.789 225.962 584.506 227.41 577.321 225.496C574.38 224.712 571.811 226.378 569.082 226.994C563.486 228.258 562.05 227.362 560.491 221.852C559.256 217.49 559.155 212.987 558.784 208.519C558.588 206.156 558.243 204.334 555.029 204.616C535.54 206.326 516.223 210.267 496.022 209.248ZM554.179 90.5549C554.171 106.017 557.507 121.236 557.491 136.703C557.481 146.524 557.49 156.345 557.624 166.168C557.841 182.166 562.067 197.801 561.419 213.845C561.341 215.788 561.947 217.79 562.424 219.717C563.697 224.865 565.026 225.567 570.296 224.001C572.523 223.339 574.675 222.349 577.103 222.779C584.476 224.085 591.963 223.013 599.333 223.729C606.465 224.422 613.604 222.96 620.639 224.008C631.483 225.624 641.467 223.94 652.07 220.694C660.625 218.075 670.449 219.099 679.728 217.335C683.481 216.622 688.686 217.662 693.247 217.657C700.817 217.649 701.577 216.683 700.593 209.313C699.476 200.948 698.131 192.583 699.696 184.091C700.049 182.173 699.854 180.105 699.634 178.138C698.183 165.2 698.156 152.273 699.474 139.318C700.185 132.33 700.216 125.475 696.935 118.819C693.952 112.768 692.665 106.076 693.849 99.3568C695.07 92.4253 694.643 85.424 695.494 78.4753C696.388 71.1801 693.305 68.8017 686.318 71.0323C680.801 72.7935 675.507 72.5666 670.155 70.8397C668.691 70.3675 667.33 70.0986 665.777 70.4409C655.497 72.7078 644.777 72.5046 634.596 72.2641C623.945 72.0126 613.836 73.9906 603.646 75.308C590.073 77.0628 576.819 79.1351 563.596 74.0417C559.338 72.4017 557.012 74.2926 555.611 78.2493C554.301 81.9497 554.267 85.7603 554.179 90.5549ZM478.053 167.245C477.988 166.605 478.17 165.724 477.819 165.362C474.639 162.086 474.173 159.029 478.238 156.104C478.333 156.035 478.099 155.509 478.007 155.199C472.063 154.728 472.044 154.735 469.646 148.657C468.23 145.07 470.747 142.028 471.521 138.869C472.196 136.116 474.88 139.194 476.525 138.965C480.571 138.401 482.16 139.618 482.619 143.849C482.963 147.022 485.491 150.021 481.443 152.608C480.21 153.396 479.966 155.013 481.393 155.976C482.757 156.898 484.674 155.884 484.724 154.895C484.952 150.378 489.666 146.228 485.8 141.355C484.339 139.514 483.824 136.954 486.038 135.608C488.215 134.285 490.37 133.141 492.432 131.501C495.853 128.781 496.766 133.815 499.189 134.635C504.555 136.451 501.433 140.323 501.267 143.429C500.948 149.419 494.535 152.779 489.231 149.681C488.587 151.874 486.969 154.843 490.539 155.251C494.98 155.759 495.866 157.734 494.998 161.503C494.717 162.723 495.084 163.791 495.769 164.799C498.299 168.522 499.064 172.774 499.153 177.133C499.205 179.721 500.087 180.651 502.744 180.479C518.506 179.454 534.274 178.495 550.047 177.647C554.259 177.421 555.985 175.597 555.665 171.354C555.015 162.725 554.486 154.069 554.975 145.422C555.225 140.981 553.959 139.484 549.192 139.41C535.805 139.202 527.257 132.307 522.737 119.761C519.989 112.136 520.064 104.583 522.202 96.6858C514.141 95.6956 506.566 96.7572 498.976 97.3424C487.715 98.2106 476.41 98.6263 465.243 100.479C457.208 101.811 456.597 102.76 456.32 110.799C455.782 126.455 457.568 142.04 457.518 157.688C457.493 165.467 458.809 173.245 459.375 181.033C459.556 183.518 460.526 184.804 463.059 184.555C466.028 184.263 468.994 183.918 471.948 183.501C473.664 183.258 474.602 182.14 474.585 180.399C474.543 175.941 476.309 171.964 478.053 167.245ZM449.882 91.3137C446.272 91.7382 445.375 94.1189 445.362 97.3258C445.333 103.987 445.999 110.629 446.117 117.261C446.528 140.211 449.075 163.09 448.355 186.072C448.329 186.903 448.392 187.737 448.4 188.569C448.415 190.359 449.304 191.451 451.086 191.519C458.238 191.795 465.397 191.999 472.528 191.196C473.963 191.034 475.748 190.701 475.504 188.596C475.254 186.443 473.544 186.109 471.772 186.188C468.616 186.33 465.455 186.469 462.311 186.77C459.368 187.052 457.854 186.386 457.343 182.945C456.07 174.368 455.567 165.747 455.292 157.121C454.762 140.509 453.574 123.925 454.194 107.257C454.429 100.965 457.212 99.4882 462.398 98.6246C481.633 95.4219 501.061 94.6657 520.472 93.6624C529.113 93.2157 537.761 92.8769 546.408 92.5644C550.185 92.4279 551.576 90.5343 551.682 86.8473C551.79 83.0976 549.489 82.9291 546.85 82.8029C544.524 82.6916 542.199 82.3967 539.876 82.4212C521.904 82.6107 504.094 84.7754 486.256 86.7185C474.373 88.013 462.442 88.8511 449.882 91.3137ZM444.346 194.511C440.66 196.377 439.117 200.628 440.446 205.407C441.468 209.08 444.519 207.511 446.717 207.577C465.841 208.152 484.957 206.294 504.046 206.79C520.99 207.23 537.339 202.684 554.135 202.449C557.522 202.402 559.078 200.513 558.334 196.752C556.87 189.347 557.015 189.32 549.71 190.28C549.382 190.323 549.047 190.349 548.716 190.346C531.597 190.154 514.551 191.097 497.46 192.277C480.092 193.477 462.675 195.136 444.346 194.511ZM542.306 116.017C539.798 119.273 537.219 122.391 532.388 120.579C529.762 119.595 527.422 117.982 527.103 115.121C526.784 112.267 529.83 112.093 531.611 111.233C537.459 108.411 543.353 105.65 549.382 103.25C552.779 101.897 551.331 99.4727 551.25 97.4047C551.161 95.0982 549.587 94.2553 547.402 94.7471C542.126 95.9345 536.777 95.4528 531.469 95.3591C526.926 95.2789 524.383 97.6495 523.739 101.615C521.227 117.082 528.281 136.344 550.286 137.455C552.852 137.584 554.522 136.687 554.615 133.886C554.834 127.258 554.404 120.684 552.951 113.221C549.824 116.161 546.544 116.841 542.306 116.017ZM481.208 164.999C481.046 169.229 478.382 172.667 477.591 176.751C475.367 188.24 478.687 191.863 490.178 190.151C492.428 189.816 494.583 189.404 495.25 186.916C496.904 180.738 497.725 174.484 494.817 168.458C493.545 165.824 491.45 163.624 492.518 160.267C492.962 158.873 491.952 157.356 490.384 157.619C486.422 158.282 482.074 157.669 478.647 160.538C478.598 162.451 480.004 163.278 481.208 164.999ZM508.717 182.39C506.892 182.467 505.059 182.463 503.243 182.638C499.497 183.001 497.461 184.815 498.184 188.833C499.391 189.873 500.769 189.692 502.056 189.516C516.256 187.568 530.526 187.487 544.818 187.749C547.793 187.804 550.8 187.891 553.694 186.813C555.904 185.989 556.928 184.572 556.411 182.218C555.86 179.708 554.206 179.496 551.893 179.625C537.808 180.41 523.793 182.274 508.717 182.39ZM488.365 140.586C491.588 142.391 494.811 144.197 498.351 146.18C498.917 143.435 496.364 140.881 499.104 138.521C495.311 139.355 491.95 140.338 488.555 138.527C488.141 138.306 487.763 139.363 488.365 140.586ZM475.905 149.706C477.118 146.753 479.562 150.584 481.207 148.563C481.272 146.366 478.377 145.202 478.964 141.679C476.328 146.317 475.229 142.027 473.308 141.838C476.072 144.203 473.366 147.843 475.905 149.706Z" fill="black"/>
<g id="Github">
<path id="Vector_3" d="M338.018 146.958C337.74 136.646 337.508 126.826 337.159 117.01C337.071 114.516 338.361 113.629 340.482 113.762C344.528 114.015 348.419 112.982 352.373 112.519C356.231 112.068 359.858 111.734 362.312 107.467C364.597 103.496 369.67 104.083 373.694 103.741C380.139 103.194 386.62 103.819 393.113 102.864C399.175 101.972 396.834 106.544 396.492 109.777C399.852 111.31 403.392 110.605 406.778 110.572C410.59 110.534 412.059 112.043 412.38 115.818C412.816 120.948 412.957 126.01 412.429 131.144C411.623 138.972 413.311 146.734 413.444 154.556C413.566 161.731 412.763 168.819 412.371 175.947C412.25 178.138 411.33 179.366 409.293 179.846C408.326 180.074 407.328 180.369 406.355 180.334C388.179 179.681 370.214 182.588 352.134 183.517C349.326 183.662 346.513 183.939 343.733 184.362C339.749 184.969 338.332 182.786 337.951 179.362C337.805 178.041 337.713 176.705 337.724 175.378C337.804 166.069 337.918 156.76 338.018 146.958ZM365.504 125.412C366.158 124.762 367.436 124.725 367.471 122.797C361.362 123.639 359.958 119.764 360.587 114.606C354.341 114.167 349.044 116.03 343.611 116.254C339.98 116.403 338.828 118.094 339.592 121.328C340.564 125.442 340.346 129.6 340.355 133.753C340.386 147.903 340.59 162.058 340.279 176.201C340.176 180.907 342.063 182.027 346.105 181.641C353.365 180.948 360.631 179.758 367.894 179.769C380.368 179.788 392.636 176.383 405.178 177.879C408.03 178.219 409.335 176.764 409.875 173.536C411.654 162.905 410.909 152.241 410.365 141.664C409.941 133.413 411.601 125.125 409.708 116.917C409.314 115.207 409.287 113.389 407.144 113.285C403.414 113.103 399.677 111.547 395.947 112.967C395.377 114.805 397.622 116.155 396.036 118.293C390.929 119.214 385.421 120.207 378.596 121.438C381.405 122.125 383.004 122.404 384.528 122.909C391.14 125.099 397.212 127.927 400.037 135.063C403.483 143.767 403.585 152.588 401.068 161.447C399.963 165.339 397.753 168.779 394.256 171.029C381.661 179.134 362.398 174.922 354.437 162.403C347.218 151.048 352.232 133.521 365.504 125.412ZM376.135 172.56C378.456 172.447 380.818 172.573 383.09 172.178C390.567 170.878 390.245 170.816 390.007 163.394C389.864 158.934 386.394 154.673 387.504 150.964C389.159 145.433 386.466 141.01 386.528 135.798C383.044 135.858 381.279 139.234 378.046 139.074C375.031 138.926 373.282 135.23 369.695 136.379C369.828 140.712 366.87 145.097 368.788 149.103C371.047 153.819 369.426 157.984 369.159 162.989C362.509 158.931 365.48 151.681 362.708 146.766C359.82 147.105 359.443 149.155 359.318 151.137C358.937 157.166 361.401 161.772 366.587 164.904C367.985 165.748 370.078 166.163 370.256 167.991C370.576 171.278 372.846 171.915 376.135 172.56ZM363.721 116.279C363.084 118.566 363.06 120.364 366.322 119.927C375.174 118.741 384.032 117.599 393.673 116.336C390.649 112.312 394.481 109.373 393.986 105.033C384.064 107.809 373.515 103.644 363.014 109.301C366.027 111.547 365.964 113.631 363.721 116.279Z" fill="black"/>
</g>
<path id="Vector_4" d="M490.692 320.563C495.258 321.473 498.84 320.021 501.498 317.071C511.286 306.21 524.201 304.096 537.772 303.627C547.575 303.288 557.409 304.443 567.194 303.009C568.265 302.852 569.583 302.722 570.296 304.734C566.275 305.504 562.385 306.228 558.34 306.375C548.044 306.748 537.766 306.057 527.43 306.959C516.209 307.938 508.255 313.574 501.111 321.739C504.248 323.884 507.872 321.399 511.852 322.988C507.537 325.331 503.772 325.257 499.93 324.579C490.058 322.839 480.168 321.228 470.739 326.314C465.031 329.394 459.395 332.617 453.82 335.933C448.212 339.268 442.224 340.833 435.727 340.38C434.684 340.307 433.286 340.704 432.822 338.739C435.14 337.117 437.851 338.464 440.293 338.112C448.399 336.943 454.816 332.295 461.425 328.302C470.42 322.869 479.764 319.779 490.692 320.563Z" fill="black"/>
<path id="Vector_5" d="M563.135 346.555C562.871 337.335 561.811 328.5 565.367 319.944C563.868 340.83 565.338 361.269 573.192 380.968C566.797 370.451 563.956 359.032 563.135 346.555Z" fill="black"/>
<path id="Vector_6" d="M401.566 366.717C402.026 377.077 404.317 386.634 407.724 395.978C397.56 387.462 397.108 347.383 405.376 337.402C403.559 347.759 401.704 356.931 401.566 366.717Z" fill="black"/>
<path id="Vector_7" d="M413.811 322.173C405.232 323.093 398.137 327.76 390.039 328.894C384.732 329.638 379.836 328.722 374.62 325.472C376.005 324.838 376.551 324.372 376.817 324.498C386.445 329.067 395.244 325.252 404.164 321.987C410.099 319.815 416.201 318.419 423.161 320.121C420.319 323.141 416.845 320.823 413.811 322.173Z" fill="black"/>
<path id="Vector_8" d="M638.676 341.782C639.366 330.614 636.803 319.963 638.534 309.218C641.859 326.98 639.769 345.236 643.576 362.968C639.293 356.61 640.065 349.197 638.676 341.782Z" fill="black"/>
<path id="Vector_9" d="M435.495 356.762C435.236 354.701 433.703 353.014 435.448 351.308C440.301 356.794 440.703 386.592 435.179 393.649C436.603 380.727 437.697 368.917 435.495 356.762Z" fill="black"/>
<path id="Vector_10" d="M744.626 404.34C743.255 404.206 742.306 404.076 741.125 403.914C744.808 400.544 770.704 401.349 778.433 405.488C767.315 404.398 756.185 404.064 744.626 404.34Z" fill="black"/>
<path id="Vector_11" d="M514.269 364.819C512.755 370.339 512.886 375.899 509.625 380.566C509.783 368.856 516.424 357.19 508.536 345.211C514.241 347.356 514.71 349.21 514.269 364.819Z" fill="black"/>
<path id="Vector_12" d="M624.564 333.01C624.761 331.825 624.699 330.954 625.54 330.469C626.819 333.133 628.45 358.646 627.559 362.063C626.039 360.05 623.694 338.037 624.564 333.01Z" fill="black"/>
<path id="Vector_13" d="M617.281 367.819C613.576 360.258 612.356 352.65 614 344.714C616.001 347.692 614.923 351.056 615.647 354.202C616.5 357.909 617.086 361.67 618.592 365.217C619.004 366.189 620.829 368.239 617.281 367.819Z" fill="black"/>
<g id="Cat">
<path id="Vector_14" d="M519.915 275.75C517.487 280.432 515.694 285.142 511.235 287.828C508.521 286.226 508.76 283.851 508.859 281.829C509.135 276.186 509.738 270.561 510.155 264.924C510.325 262.643 512.124 259.796 508.608 258.542C505.689 257.502 499.826 260.357 499.249 263.079C498.455 266.817 498.097 270.646 497.331 274.392C496.218 279.833 495.587 285.506 491.151 290.438C485.308 283.054 486.344 274.441 485.239 266.383C481.03 266.451 478.03 268.295 475.025 269.936C473.085 270.995 473.485 272.955 473.767 274.852C474.807 281.857 474.099 288.768 472.36 295.599C472.066 296.753 471.776 297.878 469.505 298.505C464.471 291.748 463.841 283.262 461.806 274.923C456.341 275.867 451.66 278.911 446.53 280.649C444.258 281.42 445.674 283.471 446.312 284.921C448.58 290.078 450.289 295.311 449.192 301.807C446.649 299.386 447.546 296.696 446.954 294.535C445.062 287.63 442.454 281.259 436.491 276.861C433.841 274.907 434.552 271.731 433.392 269.227C430.635 263.277 427.391 262.171 424.353 267.653C420.557 274.502 414.95 277.074 408.176 278.895C405.119 279.716 402.405 281.376 400.738 284.075C397.393 282.965 394.443 281.815 391.401 281.016C386.849 279.822 384.689 281.862 385.622 286.514C386.375 290.272 387.396 294.041 390 297.004C391.466 298.673 392.107 300.326 391.451 302.447C389.41 309.047 391.525 314.496 396.098 319.274C396.777 319.983 397.565 320.689 397.075 321.857C392.96 320.855 388.568 315.287 388.673 310.068C388.795 303.981 388.489 298.176 384.894 292.976C384.438 292.316 384.205 291.437 384.078 290.626C383.497 286.892 381.611 282.485 384.525 279.633C387.413 276.807 391.781 278.488 395.488 279.373C397.083 279.753 398.591 280.728 400.282 279.762C405.076 277.021 410.09 274.851 415.543 273.782C416.962 273.504 417.773 272.432 418.468 271.245C419.308 269.81 420.116 268.345 421.085 266.999C423.292 263.931 426.03 260.992 430.007 261.516C434.067 262.05 434.931 266.215 436.034 269.41C439.175 278.512 442.109 279.477 451.242 276.202C468.31 270.083 484.448 261.407 502.181 257.199C516.686 253.758 530.058 255.817 540.488 267.654C547.708 275.849 549.13 287.568 544.275 297.001C543.492 298.523 543.052 300.578 540.595 300.508C539.356 298.531 541.168 297.389 541.876 296.09C549.846 281.481 539.757 267.145 529.533 262.024C527.157 260.834 525.749 261.601 524.821 263.858C523.24 267.709 521.661 271.561 519.915 275.75Z" fill="black"/>
<path id="Vector_15" d="M448.189 311.666C459.242 311.033 469.9 311.123 480.251 308.179C487.674 306.068 493.59 302.27 496.509 294.765C496.81 293.991 497.114 293.198 498.269 293.157C500.324 294.515 498.85 295.982 498.224 297.366C493.28 308.284 483.225 310.684 472.859 312.34C462.218 314.04 451.327 313.344 440.716 315.471C440.391 315.536 440.049 315.521 439.727 315.593C433.383 317.028 429.215 320.793 429.463 324.856C429.679 328.397 433.831 331.47 439.967 332.584C441.381 332.84 442.99 332.634 443.699 334.386C438.887 336.689 430.299 333.233 427.827 328.083C425.607 323.459 428.24 317.558 433.731 315.024C438.164 312.979 442.984 312.471 448.189 311.666Z" fill="black"/>
<path id="Vector_16" d="M420.368 311.508C419.658 312.591 419.21 313.572 417.537 313.184C417.473 310.741 418.76 308.085 416.928 305.581C416.28 304.697 417.867 303.642 418.94 303.176C420.056 302.692 421.697 302.481 421.901 303.824C422.293 306.409 424.699 307.352 425.827 309.205C424.422 311.291 421.594 308.831 420.368 311.508Z" fill="black"/>
<path id="Vector_17" d="M403.675 299.347C407.047 296.985 409.881 296.981 412.747 300.635C407.265 298.697 404.449 301.498 402.425 306.049C401.448 302.879 401.448 302.879 403.675 299.347Z" fill="black"/>
<path id="Vector_18" d="M421.232 296.362C421.228 292.035 423.979 290.418 427.407 289.8C429.676 289.391 432.07 289.492 433.089 293.825C427.577 290.155 424.799 294.193 421.232 296.362Z" fill="black"/>
</g>
<path id="Vector_19" d="M254.945 353.045C258.029 355.463 257.063 357.744 254.994 359.739C254.125 360.576 252.58 360.454 252.102 359.171C251.105 356.494 251.164 353.998 254.945 353.045Z" fill="black"/>
<path id="Vector_20" d="M251.457 350.392C250.016 350.385 248.94 351.477 247.863 350.423C251.009 346.946 256.695 346.471 260.649 349.674C257.484 349.918 254.658 350.136 251.457 350.392Z" fill="black"/>
<g id="Me">
<g id="Group 4">
<path id="Vector_21" d="M211.554 462.859C204.301 453.157 202.396 442.063 200.558 430.833C198.998 421.299 200.864 412.042 202.141 402.815C191.92 399.768 192.248 399.745 191.486 388.92C189.963 367.256 195.144 346.682 201.062 326.206C201.978 323.037 203.659 320.088 204.993 317.04C207.878 310.445 213.186 307.156 220.085 306.259C224.716 305.657 229.104 304.958 232.971 301.771C235.039 300.067 238.11 299.519 240.787 298.626C245.332 297.111 248.764 298.229 249.931 303.261C250.577 306.043 252.277 306.876 254.857 307.266C258.993 307.891 262.086 311.059 261.961 314.622C261.667 322.942 266.018 330.342 265.573 338.656C265.17 346.214 264.633 353.946 268.101 361.187C268.484 361.987 268.013 363.761 267.314 364.421C263.618 367.911 262.453 372.624 260.711 377.083C259.532 380.1 257.184 381.861 252.736 382.807C266.036 388.904 270.069 400.903 275.525 412.182C277.431 409.005 278.107 405.867 278.623 402.823C280.104 394.078 286.024 387.403 289.589 379.674C291.94 374.579 295.866 369.483 300.003 365.03C302.25 362.611 303.86 361.689 305.448 365.276C308.356 371.845 311.97 378.014 315.792 384.076C317.285 386.445 317.625 388.964 316.957 391.736C315.711 396.906 314.568 402.104 313.536 407.321C312.924 410.415 312.858 412.928 317.57 412.419C322.624 411.873 325.962 415.409 328.513 419.144C331.297 423.22 333.937 426.131 339.563 426.854C345.573 427.626 349.088 433.234 352.296 438.117C358.378 447.376 361.922 457.83 365.836 468.095C366.533 469.925 366.788 471.929 369.781 471.299C371.416 470.955 372.115 472.885 372.801 474.203C373.184 474.939 373.452 475.733 373.772 476.502C378.737 488.419 380.901 489.68 393.702 488.013C397.659 487.498 402.39 485.166 404.17 490.996C405.825 496.414 401.048 504.121 395.904 505.862C392.76 506.926 389.233 506.243 386.057 508.21C386.151 508.815 386.14 509.459 386.356 510.015C389.525 518.18 387.232 521.87 378.569 521.79C373.322 521.741 368.367 522.392 363.486 524.396C358.181 526.574 352.553 526.964 346.819 526.896C342.698 526.846 339.876 525.202 338.979 521.379C337.491 515.03 334.174 509.859 330.289 504.767C328.374 502.256 326.397 499.531 328.453 495.277C329.683 492.731 326.397 489.452 324.304 487.099C322.304 487.325 321.471 488.685 320.532 489.788C307.036 505.636 289.099 513.992 269.738 519.938C266.086 521.059 262.422 522.204 258.69 522.983C244.702 525.904 235.284 520.077 231.75 506.174C229.217 496.207 225.898 486.377 225.658 475.946C225.612 473.927 224.383 472.998 222.779 472.301C218.218 470.319 214.695 467.094 211.554 462.859ZM238.998 338.497C238.998 338.497 238.969 338.468 239.371 338.892C240.353 339.9 241.414 340.079 242.343 338.921C245.243 335.302 249.41 333.413 253.188 331.042C258.73 327.564 260.083 322.305 259.718 316.393C259.504 312.917 257.116 310.809 253.937 309.536C252.059 308.784 250.303 308.631 248.952 310.328C245.232 315.002 240.938 319.345 238.975 325.149C237.488 329.545 235.947 334.085 238.998 338.497ZM272.607 412.425C269.506 405.038 266.169 397.797 260.913 391.604C257.464 387.539 253.105 386.263 247.961 386.656C245.428 386.85 243.598 387.796 243.676 390.445C243.816 395.192 240.797 395.474 237.21 396.009C233.563 396.553 229.495 394.608 226.417 396.668C220.925 400.343 214.535 400.744 208.557 402.51C205.656 403.366 204.611 404.506 203.981 407.315C201.946 416.383 201.903 425.434 203.404 434.538C205.355 446.381 208.697 457.602 217.973 466.056C222.161 469.873 227.035 472.719 232.756 472.428C257.825 471.153 276.658 458.491 291.777 439.347C292.949 437.863 293.887 436.078 292.099 434.439C288.749 431.369 288.521 425.655 283.362 424.182C282.953 424.065 282.415 424.442 281.929 424.552C265.712 428.223 250.829 434.405 239.324 447.026C238.552 447.874 237.789 449.417 235.729 447.952C241.81 439.243 250.5 433.88 259.809 428.993C256.704 422.359 254.173 416.104 253.035 409.401C255.379 410.159 255.598 412.093 256.267 413.691C257.746 417.223 259.05 420.828 260.536 424.356C261.193 425.918 262.128 427.189 264.221 427.149C273.169 426.981 276.129 422.974 273.4 414.566C273.246 414.092 273.038 413.634 272.607 412.425ZM310.516 426.56C308.395 428.222 308.194 430.21 308.879 432.781C312.088 444.837 316.007 456.66 320.02 468.464C322.655 476.215 325.689 483.754 329.987 490.74C330.754 491.986 331.321 493.541 332.996 493.878C336.478 494.58 345.774 486.423 345.338 482.742C344.654 476.967 344.801 471.134 343.65 465.385C340.597 450.145 337.126 435.1 327.649 422.253C325.956 419.958 324.147 417.796 321.751 416.208C318.74 414.211 316.411 414.359 315.46 418.365C314.746 421.368 313.246 423.903 310.516 426.56ZM206.394 368.419C206.209 357.051 206.09 345.693 210.066 334.934C210.634 335.007 211.202 335.08 211.77 335.153C210.963 339.899 210.157 344.645 209.35 349.39C211.132 345.552 212.146 341.081 216.102 339.176C220.948 336.844 222.059 333.091 222.205 328.365C222.416 321.562 224.906 315.175 226.704 308.649C216.939 306.977 209.709 311.836 205.428 321.817C200.2 334.006 197.643 346.89 195.6 359.827C193.82 371.104 192.204 382.511 194.261 394.021C194.838 397.248 196.27 398.489 199.604 399.361C206.218 401.09 212.026 398.715 218.173 397.479C221.923 396.724 223.308 394.983 223.055 391.401C222.587 384.776 222.156 378.149 221.757 371.52C221.67 370.07 221.211 368.853 219.873 368.254C214.404 365.806 210.883 361.579 208.722 355.974C208.641 361.965 208.166 367.733 208.816 373.568C209.451 379.262 211.445 384.856 210.465 390.746C207.241 383.923 206.499 376.677 206.394 368.419ZM236.979 368.384C234.72 369.637 232.234 370.077 229.739 369.826C225.158 369.366 223.819 371.529 224.327 375.711C224.785 379.488 225.182 383.285 225.341 387.084C225.588 393.029 227.364 394.511 233.992 393.89C240.586 393.273 241.641 391.904 240.92 385.977C240.677 383.977 238.456 383.268 238.523 381.279C254.279 381.148 255.201 380.896 257.034 376.086C255.125 375.398 253.219 374.712 250.76 373.826C251.799 373.225 252.246 372.746 252.552 372.823C257.158 373.991 260.221 372.706 261.507 367.792C261.809 366.636 263.189 365.783 264.001 364.735C265.049 363.38 265.745 361.932 265.117 360.123C262.106 351.452 262.548 342.457 262.634 333.491C262.654 331.403 263.052 329.107 260.825 327.735C258.658 329.645 256.67 331.647 254.428 333.306C252.165 334.98 249.575 336.207 247.265 337.826C244.567 339.717 242.623 341.738 244.178 345.704C247.816 354.985 245.599 361.921 236.979 368.384ZM348.792 524.159C353.487 524.386 358.111 524.03 362.475 522.137C367.596 519.916 372.874 518.795 378.486 519.135C381.176 519.298 384.159 519.26 384.809 515.771C385.482 512.157 383.705 509.639 380.324 508.39C377.522 507.355 374.647 506.514 371.794 505.62C362.179 502.607 355.586 496.738 353.54 486.489C353.328 485.427 353.198 484.146 351.536 483.716C347 489.578 340.876 493.588 334.238 496.72C330.29 498.582 330.347 500.831 332.66 503.638C336.505 508.304 339.642 513.205 340.859 519.31C341.549 522.773 344.164 524.582 348.792 524.159ZM362.326 497.679C371.823 504.534 382.122 507.261 393.679 503.96C397.883 502.76 403.66 495.792 402.166 492.48C400.048 487.787 395.713 489.986 392.161 490.667C381.734 492.664 376.35 489.792 372.258 480.038C371.612 478.499 371.728 476.329 369.565 475.748C367.164 477.94 365.147 480.618 362.467 482.07C354.929 486.155 354.954 486.935 360.495 495.69C360.845 496.244 361.362 496.692 362.326 497.679ZM357.598 482.243C360.785 479.859 366.194 478.099 364.633 473.292C360.636 460.978 356.391 448.587 348.865 437.874C345.78 433.483 342.351 428.479 335.133 428.881C343.371 445.863 346.254 463.868 348.179 482.153C350.309 481.506 350.592 479.391 352.379 479.537C354.49 479.622 354.132 483.516 357.598 482.243ZM278.488 417.29C279.211 419.592 280.754 421.072 283.172 421.066C285.999 421.059 286.278 418.534 287.087 416.565C287.718 415.03 288.358 413.47 289.231 412.069C292.053 407.541 294.082 407.347 297.729 411.202C301.596 408.903 305.108 405.234 310.649 408.326C311.874 402.944 312.743 398.391 313.979 393.94C314.898 390.629 313.446 389.601 310.559 389.631C303.903 389.701 297.245 389.761 290.594 390.009C287.923 390.109 285.91 391.599 284.767 394.098C281.5 401.243 279.005 408.608 278.488 417.29ZM298.913 431.913C303.499 429.138 307.811 425.986 311.164 421.771C313.709 418.573 313.382 415.305 310.568 412.316C307.772 409.347 304.848 409.32 301.781 411.897C299.044 414.197 296.288 416.474 293.543 418.76C291.311 416.235 294.793 414.031 293.071 411.911C287.263 418.598 287.459 425.733 293.38 431.756C295.04 433.444 296.536 433.212 298.913 431.913ZM306.124 372.821C304.874 371.17 305.015 368.572 302.681 367.602C300.11 372.512 307.027 385.118 314.04 386.758C311.29 381.906 308.892 377.674 306.124 372.821ZM299.975 382.933C301.947 383.563 303.519 385.277 306.032 385.181C303.439 380.888 300.958 376.779 298.381 372.512C293.067 378.883 293.128 379.318 299.975 382.933ZM296.953 386.951C297.78 386.604 298.892 387.494 299.704 386.142C297.042 384.595 294.637 382.645 291.503 382.322C290.094 383.791 289.585 385.193 290.628 387.314C292.435 387.222 294.365 387.124 296.953 386.951Z" fill="black"/>
<path id="Vector_22" d="M166.323 327.578C164.439 321.599 170.166 313.967 176.114 313.96C176.44 313.959 176.791 313.958 177.088 314.07C179.777 315.083 183.687 328.825 181.872 331.121C180.395 332.987 178.632 334.941 176.006 333.337C173.281 331.67 174.777 329.705 176.107 327.87C178.383 324.727 176.098 322.722 174.448 320.535C168.714 323.017 168.298 324.183 171.65 330.58C173.844 334.764 174.289 338.467 170.209 341.683C168.606 342.946 166.723 344.261 164.864 342.532C163.171 340.957 164.252 338.86 165.365 337.557C167.981 334.494 168.385 331.41 166.323 327.578Z" fill="black"/>
<path id="Vector_23" d="M191.199 309.457C191.268 305.894 189.376 303.19 188.671 300.131C188.128 297.776 186.566 294.865 190.09 293.856C193.339 292.926 195.922 295.17 197.607 297.646C199.711 300.738 196.306 301.273 194.469 302.548C195.041 304.194 195.65 305.726 196.1 307.304C196.461 308.569 196.786 309.882 196.854 311.187C197.037 314.655 194.654 316.2 191.864 317.166C190.459 317.653 188.686 317.797 188.009 315.991C186.88 312.978 189.35 311.522 191.199 309.457Z" fill="black"/>
<path id="Vector_24" d="M237.284 443.565C232.231 436.51 229.055 429.053 227.877 420.461C230.456 420.814 230.267 422.421 230.658 423.582C232.606 429.38 234.761 435.08 237.702 440.472C238.169 441.328 240.414 442.78 237.284 443.565Z" fill="black"/>
<path id="Vector_25" d="M204.696 339.911C206.978 332.424 207.611 324.625 213.952 319.353C210.698 327.093 208.367 335.073 206.467 343.188C204.596 351.181 202.934 359.211 201.755 367.386C199.906 358.072 202.871 349.256 204.696 339.911Z" fill="black"/>
</g>
<path id="Vector_26" d="M239.012 340.014C239.895 331.723 246.89 326.885 250.215 319.661C251.392 323.169 251.532 323.274 249.831 325.547C246.673 329.77 242.8 333.523 241.873 339.081C241.733 339.922 240.61 340.007 239.363 339.982C238.969 339.969 238.998 339.999 239.012 340.014Z" fill="black"/>
</g>
<path id="Vector_27" d="M657.777 97.3077C657.393 95.9264 656.365 94.8737 658.122 93.5179C662.488 98.3082 663.152 104.527 664.203 110.331C666.919 125.332 665.538 140.327 662.951 155.226C660.547 169.064 659.908 182.878 662.972 196.708C663.393 198.608 663.862 200.563 662.888 202.53C661.082 202.231 661.002 200.718 660.786 199.536C657.777 183.038 658.308 166.641 661.063 150.085C663.991 132.488 664.955 114.762 657.777 97.3077Z" fill="black"/>
<path id="Vector_28" d="M567.631 152.904C566.1 140.505 569.916 129.057 570.985 117.355C571.478 111.963 570.671 106.781 570.158 101.526C569.988 99.7904 569.232 98.1117 570.907 96.0272C572.647 99.4044 573.501 102.396 573.454 105.744C573.309 116.047 572.361 126.218 570.645 136.419C568.958 146.451 569.658 156.626 572.932 166.474C576.534 177.306 575.265 188.518 575.234 199.624C575.232 200.478 574.914 201.252 573.907 201.464C572.585 201.217 572.459 200.139 572.582 199.167C574.495 184.005 571.548 169.384 567.73 154.854C567.606 154.381 567.665 153.86 567.631 152.904Z" fill="black"/>
<path id="Vector_29" d="M608.982 171.995C609.011 151.236 609.054 130.972 603.601 111.203C602.747 108.107 601.775 105.042 600.587 101.052C604.215 102.771 604.479 105.437 605.163 107.586C607.993 116.473 609.213 125.682 610.374 134.911C612.378 150.832 611.189 166.807 611.252 182.75C611.279 189.62 609.749 196.496 608.138 203.334C606.623 193.013 609.679 182.779 608.982 171.995Z" fill="black"/>
<path id="Vector_30" d="M586.827 131.53C589.764 140.56 587.191 149.454 588.27 158.181C588.807 162.521 590.869 166.61 590.076 171.207C586.85 166.566 586.08 161.148 585.681 155.743C585.131 148.301 586.59 140.751 584.655 133.373C583.306 128.231 581.796 123.132 580.412 117.999C578.988 112.712 579.077 107.622 583.196 102.923C579.457 113.066 584.826 121.84 586.827 131.53Z" fill="black"/>
<path id="Vector_31" d="M671.415 165.733C671.256 169.071 671.128 171.993 671 174.915C670.364 174.911 669.729 174.908 669.093 174.905C667.598 162.881 673.122 150.739 669.12 138.026C674.097 142.251 674.72 153.429 671.415 165.733Z" fill="black"/>
<path id="Vector_32" d="M621.42 101.546C620.665 110.154 622.928 117.957 625.021 126.282C619.327 122.606 616.854 102.729 620.657 95.6112C622.837 97.2051 621.084 99.3149 621.42 101.546Z" fill="black"/>
<path id="Vector_33" d="M509.366 112.965C511.243 112.662 512.743 112.564 514.193 112.24C515.803 111.88 517.301 111.787 517.833 113.68C518.392 115.667 516.711 116.228 515.358 116.799C513.372 117.636 511.331 118.34 509.316 119.109C507.154 119.935 505.231 119.643 504.346 117.354C503.221 114.442 505.739 114.192 507.544 113.524C508.01 113.351 508.492 113.221 509.366 112.965Z" fill="black"/>
<path id="Vector_34" d="M521.385 131.183C523.497 132.811 522.502 133.971 521.238 134.956C519.151 136.584 516.986 138.114 514.85 139.68C513.392 140.749 512.04 140.689 511.046 139.097C510.132 137.632 510.218 135.993 511.798 135.221C514.843 133.735 517.275 130.846 521.385 131.183Z" fill="black"/>
<path id="Vector_35" d="M534.159 154.025C530.74 155.233 529.26 154.144 530.27 150.92C531.05 148.433 532.314 146.094 533.407 143.709C533.913 142.604 534.68 141.654 536.058 142.094C537.424 142.53 537.607 143.808 537.328 144.946C536.593 147.954 536.061 151.044 534.159 154.025Z" fill="black"/>
<path id="Vector_36" d="M544.044 153.753C544.269 151.283 544.504 149.164 545.064 147.135C545.393 145.944 546.493 145.373 547.814 145.752C548.983 146.088 549.095 147.03 549.121 148.071C549.236 152.82 547.527 154.946 544.044 153.753Z" fill="black"/>
<path id="Vector_37" d="M542.196 124.421C545.349 124.234 546.037 121.386 548.12 119.282C549.165 123.28 547.301 125.197 544.733 126.321C542.135 127.458 539.609 127.195 538.2 124.153C539.744 122.474 540.729 124.143 542.196 124.421Z" fill="black"/>
<g id="Camera">
<path id="Vector_38" d="M671.274 410.497C673.672 405.544 676.79 401.973 681.57 399.606C684.104 398.351 686.855 396.037 687.89 393.532C690.888 386.276 696.98 384.737 703.522 384.059C712.596 383.118 721.721 382.668 730.822 381.965C734.723 381.664 736.647 382.926 736.408 387.3C736.082 393.268 736.317 399.268 736.334 405.254C736.36 414.632 731.868 419.393 722.443 419.327C712.786 419.26 703.178 419.841 693.589 420.8C690.631 421.096 689.772 419.874 689.618 417.208C689.308 411.82 688.808 406.443 688.341 400.486C684.881 402.576 684.439 405.312 684.32 408.103C684.199 410.923 684.404 413.758 684.296 416.579C684.168 419.948 682.936 422.862 679.606 424.161C676.659 425.31 673.627 425.091 671.16 422.888C668.359 420.388 668.858 417.252 669.924 414.123C670.299 413.022 670.718 411.936 671.274 410.497ZM723.101 416.862C728.237 417.032 730.251 414.661 729.74 409.486C729.349 405.53 729.703 401.503 729.665 397.508C729.581 388.893 729.565 388.897 720.843 389.328C719.513 389.394 718.166 389.292 716.852 389.462C708.517 390.544 700.068 390.85 691.46 392.767C691.46 400.228 691.402 407.359 691.489 414.489C691.522 417.163 692.529 418.922 695.808 418.388C704.539 416.965 713.361 416.893 723.101 416.862ZM677.718 405.273C675.211 408.021 673.916 411.451 672.456 414.773C671.116 417.82 670.83 420.574 674.859 421.907C678.753 423.195 680.328 420.707 681.545 417.82C683.32 413.611 681.564 409.319 681.431 405.087C681.354 402.665 679.429 403.879 677.718 405.273ZM731.828 388.529C732.147 395.701 732.467 402.872 732.79 410.148C733.38 409.966 733.674 409.919 733.675 409.868C733.765 402.345 733.931 394.82 733.772 387.301C733.753 386.422 732.53 387.346 731.828 388.529ZM725.957 386.011C727.022 385.757 728.31 386.267 729.279 384.959C718.108 385.129 707.219 386.122 696.52 388.808C706.065 387.884 715.61 386.961 725.957 386.011Z" fill="black"/>
<path id="Vector_39" d="M699.383 410.603C694.455 405.306 694.408 400.418 698.95 395.974C703.163 391.851 709.498 391.628 713.904 395.446C716.906 398.048 717.355 404.056 714.869 408.373C712.738 412.073 707.596 414.168 703.692 412.801C702.294 412.311 701.011 411.492 699.383 410.603ZM701.001 407.997C701.001 407.997 700.98 407.971 701.406 408.523C702.377 409.127 703.277 410.045 704.33 410.279C708.375 411.178 711.374 409.865 713.152 405.883C714.891 401.986 714.442 398.836 710.664 396.494C706.992 394.217 702.352 395.194 699.773 399.018C697.577 402.274 697.257 405.488 701.001 407.997Z" fill="black"/>
<path id="Vector_40" d="M718.417 392.013C720.482 390.041 722.924 390.366 725.109 390.1C727.095 389.859 727.635 391.433 726.692 393.063C725.451 395.208 719.921 394.686 718.417 392.013Z" fill="black"/>
<path id="Vector_41" d="M701.014 408.009C700.561 406.1 699.77 404.234 700.464 402.177C701.701 398.515 704.342 396.53 708.031 397.197C711.772 397.873 712.803 401.019 712.368 404.481C711.871 408.438 709.152 409.654 705.558 409.287C704.268 409.155 703.022 408.592 701.368 408.099C700.98 407.971 701.001 407.997 701.014 408.009ZM710.094 404.207C710.015 401.086 709.015 398.809 705.33 399.98C703.948 400.419 702.802 401.707 702.614 403.316C702.438 404.824 703.423 405.872 704.697 406.402C706.758 407.262 708.613 406.972 710.094 404.207Z" fill="black"/>
</g>
<g id="Linkedin">
<path id="Vector_42" d="M288.83 186.259C279.264 187.329 270.151 187.031 261.009 186.566C257.669 186.397 255.939 185.384 255.83 182.097C255.164 162.01 253.683 141.93 255.655 121.827C256.06 117.704 258.977 117.098 261.951 116.875C265.661 116.597 268.789 115.83 272.007 113.488C275.5 110.946 280.35 111.91 284.609 111.342C291.514 110.421 298.422 109.521 305.306 108.459C307.979 108.047 309.689 108.418 309.238 111.608C308.723 115.247 310.211 116.596 313.764 115.775C314.247 115.663 314.752 115.617 315.248 115.599C323.481 115.316 323.931 116.268 323.97 124.495C324.027 136.584 324.853 148.668 325.304 160.756C325.477 165.4 325.412 170.028 326.059 174.676C326.888 180.628 325.361 181.804 319.391 182.432C309.333 183.491 299.314 184.923 288.83 186.259ZM257.391 164.239C257.712 169.045 258.385 173.86 258.253 178.654C258.13 183.096 259.385 184.499 264.108 184.749C282.356 185.715 300.094 181.268 318.138 180.32C322.611 180.085 323.914 177.883 323.669 173.506C322.739 156.933 322.147 140.341 321.375 123.758C321.287 121.87 321.955 119.204 319.398 118.678C316.579 118.097 313.042 117.23 311.166 120.323C309.189 123.584 306.181 123.879 303.105 124.323C296.218 125.317 289.324 126.277 282.414 127.086C278.52 127.542 274.491 128.336 271.165 125.743C270.213 123.287 274.003 119.83 269.557 118.802C262.275 117.12 258.12 120.369 257.425 127.855C257.287 129.341 257.356 130.847 257.357 132.344C257.365 142.658 257.38 152.971 257.391 164.239ZM306.274 112.503C306.326 110.514 304.934 111.023 303.854 111.161C294.208 112.397 284.565 113.659 274.745 114.936C276.152 118.089 274.746 121.159 275.118 124.811C285.481 124.563 295.534 122.82 305.6 121.365C307.675 121.065 307.555 118.945 307.439 117.272C307.337 115.802 305.713 114.766 306.274 112.503Z" fill="black"/>
<path id="Vector_43" d="M266.609 160.107C266.052 155.521 266.177 151.35 266.973 147.264C269.015 136.784 279.33 127.692 288.467 128.119C304.01 128.844 313.354 136.568 315.209 150.539C315.643 153.802 316.394 157.056 315.954 160.461C314.052 175.15 301.25 180.228 289.215 179.735C274.608 179.136 268.559 173.265 266.609 160.107ZM309.596 169.348C315.172 161.41 314.458 153.046 311.033 144.641C305.276 130.518 287.061 126.088 275.942 136.457C268.997 142.933 267.355 151.471 269.199 160.766C271.15 170.599 275.248 174.669 285.028 176.732C293.64 178.549 301.105 176.346 308.317 170.687C308.61 170.417 308.903 170.146 309.596 169.348Z" fill="black"/>
<path id="Vector 1" d="M276.736 146.926H282.838" stroke="black" stroke-width="2" stroke-linecap="round"/>
<path id="Vector 2" d="M276.644 148.055V170.142" stroke="black" stroke-width="2" stroke-linecap="round"/>
<path id="Vector 3" d="M283.539 147.353V169.471" stroke="black" stroke-width="2" stroke-linecap="round"/>
<path id="Vector 4" d="M277.102 169.746H283.295" stroke="black" stroke-width="2" stroke-linecap="round"/>
<path id="Vector 5" d="M287.048 147.048V168.922" stroke="black" stroke-width="2" stroke-linecap="round"/>
<path id="Vector 6" d="M287.2 169.471C287.22 169.471 287.311 169.481 287.861 169.496C289.186 169.533 290.138 169.512 290.356 169.527C290.724 169.532 291.013 169.512 291.14 169.476C291.206 169.461 291.277 169.451 291.41 169.288" stroke="black" stroke-width="2" stroke-linecap="round"/>
<path id="Vector 7" d="M291.532 168.861C291.532 168.418 291.532 167.435 291.537 166.255C291.539 165.76 291.573 165.598 291.588 165.037C291.601 164.568 291.593 163.722 291.629 163.065C291.688 161.961 291.817 161.156 291.842 160.592C291.86 160.194 291.979 159.571 292.203 158.72C292.298 158.355 292.447 158.012 292.701 157.443C293.079 156.593 293.98 155.736 294.429 155.377C294.752 155.12 295.08 155.031 295.466 154.955C295.861 154.877 296.511 154.827 297.139 154.913C297.649 154.983 298.11 155.223 298.507 155.497C299.052 155.874 299.422 156.411 299.723 156.794C300.012 157.161 300.003 157.612 300.105 157.983C300.248 158.507 300.257 158.983 300.308 159.726C300.38 160.766 300.43 161.436 300.446 161.924C300.468 162.633 300.491 163.714 300.507 164.221C300.52 164.646 300.542 164.986 300.557 165.636C300.563 167.223 300.583 168.342 300.623 168.584C300.644 168.766 300.664 169.068 300.685 169.38" stroke="black" stroke-width="2" stroke-linecap="round"/>
<path id="Vector 8" d="M288.024 147.872C288.236 147.872 288.865 147.912 290.094 147.928C290.402 147.912 290.545 147.882 290.748 147.851C290.87 147.841 291.031 147.841 291.197 147.841" stroke="black" stroke-width="2" stroke-linecap="round"/>
<path id="Vector 9" d="M291.197 147.841C291.197 147.901 291.197 148.426 291.192 149.219C291.187 149.518 291.177 149.609 291.171 149.832C291.166 150.054 291.166 150.407 291.166 150.77" stroke="black" stroke-width="2" stroke-linecap="round"/>
<path id="Vector 10" d="M301.539 169.044C302.396 169.034 303.907 168.973 304.491 168.942C304.803 168.881 304.986 168.861 305.112 168.856C305.179 168.851 305.249 168.841 305.444 168.83" stroke="black" stroke-width="2" stroke-linecap="round"/>
<path id="Vector 11" d="M305.932 168.19C305.932 168.149 305.932 168.109 305.932 167.555C305.932 167.001 305.932 165.933 305.927 165.031C305.918 163.424 305.871 162.567 305.815 162.334C305.735 161.998 305.718 160.606 305.637 159.771C305.609 159.474 305.576 159.151 305.556 158.845C305.534 158.516 305.485 158.236 305.398 157.783C305.319 157.365 305.22 156.873 305.139 156.319C305.02 155.51 304.743 154.415 304.641 153.994C304.536 153.564 304.357 152.958 304.199 152.43C303.927 151.518 303.665 151.016 303.219 150.35C302.922 149.909 302.286 149.34 301.825 148.945C301.579 148.735 301.306 148.584 301.026 148.442C300.518 148.183 299.883 148.095 299.511 148.08C299.019 148.06 298.307 148.034 298.001 148.019C297.394 147.988 296.375 148.074 295.927 148.262C295.289 148.531 295.022 148.704 294.757 148.918C294.475 149.147 294.269 149.345 294.065 149.544C293.839 149.764 293.446 149.975 293.089 150.316C292.865 150.566 292.621 150.809 292.261 151.074C292.174 151.126 292.113 151.146 291.99 151.166" stroke="black" stroke-width="2" stroke-linecap="round"/>
<path id="Vector 12" d="M280.58 138.475C280.459 138.465 280.014 138.344 279.033 138.317C278.461 138.302 278.141 138.627 277.83 138.891C277.446 139.218 277.377 139.572 277.209 140.222C277.09 140.682 277.153 140.996 277.29 141.331C277.478 141.793 277.853 142.094 278.341 142.455C278.779 142.78 279.326 142.837 279.951 142.899C281.364 143.037 282.124 142.767 282.749 142.478C283.184 142.277 283.486 141.773 283.732 141.183C284.1 140.299 283.581 139.839 283.392 139.524C283.23 139.252 282.88 139.005 282.584 138.751C282.178 138.496 281.75 138.333 281.583 138.287C281.496 138.262 281.405 138.232 281.19 138.14" stroke="black" stroke-width="2" stroke-linecap="round"/>
</g>
<g id="Laptop">
<path id="Vector_44" d="M840.133 381.682C847.91 382.086 855.181 383.064 862.531 382.739C867.976 382.499 866.827 386.397 866.05 389.314C863.269 399.76 859.932 410.064 857.32 420.55C853.433 436.154 845.586 450.247 840.729 465.458C839.5 469.307 836.421 470.346 833.324 469.956C811.144 467.157 788.789 467.919 766.554 466.402C760.413 465.983 760.07 464.961 762.271 459.341C765.449 451.224 769.437 443.564 774.618 436.586C780.494 428.673 779.922 418.9 782.602 410.075C784.968 402.289 786.974 394.353 788.475 386.359C789.546 380.655 792.297 379.127 797.772 379.763C811.677 381.378 825.741 380.048 840.133 381.682ZM779.057 454.732C787.507 455.361 795.96 455.954 804.407 456.629C813.009 457.316 821.602 458.112 830.205 458.785C831.631 458.896 833.401 459.333 834.307 457.741C837.482 452.161 839.755 446.233 841.468 439.775C826.92 436.941 812.801 436.333 798.751 435.458C784.158 434.549 784.134 434.939 776.892 447.502C776.643 447.934 776.4 448.37 776.168 448.811C774.748 451.509 774.989 453.615 779.057 454.732ZM795.924 423.679C811.297 425.641 826.768 425.637 842.222 425.95C844.536 425.996 846.943 426.19 847.751 423.034C850.101 413.858 852.536 404.703 855.008 395.558C855.747 392.824 855.052 391.406 852.034 391.368C835.062 391.157 818.17 389.583 801.266 388.272C797.094 387.948 795.11 389.544 794.478 393.545C793.496 399.773 792.261 405.961 791.282 412.189C790.725 415.733 789.168 419.147 789.553 422.75C791.44 423.988 793.339 423.388 795.924 423.679Z" fill="black"/>
<path id="Vector_45" d="M832.206 395.64C835.34 395.598 837.985 396.274 840.59 396.337C845.23 396.45 845.802 398.867 845.145 402.512C844.263 407.408 843.052 412.269 842.566 417.203C842.175 421.171 840.134 422.496 836.664 422.213C825.236 421.281 813.813 420.288 802.401 419.186C798.805 418.839 797.122 416.9 797.98 413.014C799.053 408.152 799.887 403.235 800.72 398.325C801.276 395.05 802.787 393.313 806.401 393.638C814.841 394.397 823.296 394.979 832.206 395.64ZM841.719 407.492C841.879 406.849 842.054 406.209 842.197 405.562C843.55 399.413 842.971 398.731 836.792 398.256C831.175 397.824 825.551 397.349 819.971 396.596C804.155 394.462 804.163 394.402 800.884 409.759C800.711 410.567 800.508 411.372 800.393 412.189C800.015 414.863 800.655 416.408 803.841 416.898C812.704 418.259 821.612 419.125 830.545 419.572C839.532 420.022 839.541 419.813 841.07 411.278C841.245 410.3 841.447 409.326 841.719 407.492Z" fill="black"/>
<path id="Vector 13" d="M805.908 403.542C805.908 404.18 805.956 405.708 806.063 406.389C806.204 407.286 806.408 407.997 806.658 409.069C807.036 410.685 807.1 411.835 807.196 412.553C807.218 412.721 807.243 412.886 807.326 412.947C807.81 413.306 808.741 411.585 809.21 410.71C809.546 410.082 809.96 409.34 810.413 408.588C810.986 407.637 811.534 406.622 811.916 405.822C812.106 405.406 812.321 404.951 812.524 404.523C812.608 404.33 812.655 404.189 812.704 403.757" stroke="black" stroke-linecap="round"/>
<path id="Vector 14" d="M818.064 404.962C817.957 404.817 817.666 404.526 817.276 404.238C817.071 404.088 816.861 403.996 816.585 403.878C816.096 403.667 815.573 403.781 815.335 403.873C815.117 403.957 814.921 404.118 814.703 404.313C814.484 404.509 814.27 404.845 814.074 405.141C813.832 405.506 814 405.949 814.13 406.229C814.28 406.552 814.582 406.602 815.006 406.763C816.046 407.157 816.406 407.154 816.847 407.36C817.263 407.555 817.404 407.759 817.607 407.989C817.806 408.214 817.925 408.7 818.021 409.012C818.117 409.321 818.095 410.115 817.816 411.08C817.669 411.586 817.39 411.714 816.87 412.17C816.54 412.459 816.194 412.505 815.941 412.558C815.621 412.627 815.039 412.544 814.512 412.356C814.225 412.254 813.873 411.993 813.576 411.808C813.212 411.502 813.013 411.233 812.917 411.057C812.882 410.98 812.874 410.927 812.82 410.78" stroke="black" stroke-linecap="round"/>
<path id="Vector 15" d="M822.916 407.653C822.855 407.599 822.717 407.462 822.477 407.274C821.969 406.878 821.653 406.901 821.369 406.836C821.161 406.789 820.97 406.847 820.847 406.905C820.602 407.02 820.494 407.268 820.349 407.472C820.203 407.675 820.164 407.928 820.095 408.169C820.031 408.395 819.942 408.686 819.938 409.691C819.936 410.133 820.049 410.373 820.137 410.618C820.223 410.859 820.416 411.123 820.616 411.324C820.764 411.472 821.15 411.531 821.512 411.596C821.827 411.555 822.102 411.402 822.286 411.249C822.364 411.187 822.409 411.156 822.548 411.033" stroke="black" stroke-linecap="round"/>
<path id="Vector 16" d="M826.941 407.791C826.872 407.76 826.689 407.668 826.421 407.58C826.238 407.52 826.075 407.492 825.949 407.507C825.669 407.54 825.478 407.805 825.236 408.164C824.909 408.651 824.848 409.016 824.836 409.632C824.829 409.982 825.001 410.219 825.142 410.644C825.223 410.885 825.392 411.032 825.564 411.194C825.738 411.356 826.224 411.332 826.77 411.221C827.072 411.16 827.216 410.965 827.411 410.777C827.643 410.555 827.76 410.367 827.856 410.183C827.957 409.991 827.983 409.716 827.987 409.402C827.991 409.084 827.8 408.819 827.635 408.531C827.478 408.305 827.279 408.121 827.098 407.975C827.056 407.944 827.011 407.914 826.849 407.837" stroke="black" stroke-linecap="round"/>
<path id="Vector 17" d="M831.931 408.48C831.855 408.435 831.671 408.282 831.495 408.147C831.324 408.017 831.02 407.99 830.763 407.982C830.522 407.975 830.322 408.25 830.184 408.434C830.034 408.633 829.877 408.901 829.793 409.116C829.691 409.372 829.7 409.993 829.799 410.701C829.897 411.402 830.205 411.546 830.477 411.806C830.732 412.05 830.995 412.137 831.336 412.156C831.589 412.171 831.784 412.007 831.976 411.801C832.323 411.427 832.696 410.609 832.82 410.065C832.937 409.554 832.821 408.957 832.729 408.746C832.66 408.673 832.568 408.611 832.453 408.542C832.392 408.504 832.323 408.458 832.184 408.365" stroke="black" stroke-linecap="round"/>
<path id="Vector 18" d="M833.955 404.387C833.947 404.486 833.871 404.776 833.798 405.026C833.743 405.213 833.55 406.187 833.434 406.934C833.398 407.167 833.388 407.459 833.334 407.851C833.301 408.093 833.265 408.622 833.238 409.028C833.223 409.265 833.166 409.506 833.142 409.92C833.104 410.736 833.089 412.014 833.066 412.147C833.058 412.221 833.058 412.304 833.058 412.39" stroke="black" stroke-linecap="round"/>
<path id="Vector 19" d="M835.362 409.823C835.501 409.827 835.882 409.861 836.239 409.908C836.314 409.917 836.352 409.92 836.631 409.923C836.91 409.925 837.43 409.925 837.702 409.889C837.974 409.854 837.982 409.782 837.987 409.67C838.006 409.177 837.915 408.973 837.86 408.848C837.786 408.68 837.577 408.512 837.3 408.321C837.127 408.203 836.884 408.156 836.673 408.124C836.538 408.103 836.425 408.13 836.339 408.172C836.006 408.334 835.774 408.733 835.627 408.927C835.435 409.182 835.354 409.365 835.282 409.503C835.224 409.613 835.223 409.751 835.204 410.076C835.189 410.335 835.197 410.783 835.208 411.09C835.23 411.739 835.294 411.871 835.379 412.049C835.447 412.193 835.632 412.349 835.789 412.435C835.913 412.502 836.236 412.549 836.509 412.562C836.722 412.572 836.822 412.515 836.993 412.454C837.19 412.383 837.381 412.262 837.497 412.166C837.563 412.097 837.614 412.037 837.65 411.995C837.669 411.974 837.69 411.953 837.724 411.88" stroke="black" stroke-linecap="round"/>
<path id="Vector 20" d="M786.529 439.217C787.097 439.318 790.505 439.563 792.242 439.655C793.248 439.708 794.058 439.849 795.891 439.921C797.46 439.982 798.787 440.277 800.049 440.421C801.48 440.583 802.836 440.706 803.459 440.758C804.368 440.833 805.791 441.012 806.837 441.064C807.998 441.122 810.319 441.338 811.552 441.492C812.354 441.593 814.7 441.949 816.685 442.308C817.506 442.457 818.53 442.522 819.573 442.727C821.102 443.027 822.572 443.136 825.394 443.39C827.408 443.572 828.392 443.626 829.595 443.758C829.983 443.809 830.448 443.87 831.264 443.901C832.079 443.932 833.231 443.932 834.418 443.993" stroke="black" stroke-linecap="round"/>
<path id="Vector 21" d="M784.141 444.973C784.161 444.973 784.182 444.973 785.223 445.206C786.264 445.438 788.325 445.903 790.902 446.152C793.48 446.402 796.511 446.422 798.174 446.453C800.04 446.487 801.722 446.707 804.109 446.962C805.853 447.148 807.299 447.583 809.039 447.902C809.512 447.988 810.769 448.197 812.523 448.472C813.395 448.609 814.264 448.79 815.405 448.942C816.148 449.042 817 449.218 818.696 449.502C819.809 449.689 821.423 450.029 823.125 450.266C826.552 450.744 828.557 450.851 829.035 450.953C830.13 451.076 830.901 451.158 831.758 451.178C832.089 451.199 832.211 451.239 832.58 451.281" stroke="black" stroke-linecap="round"/>
<path id="Vector 22" d="M781.569 449.872C781.69 449.872 782.198 449.872 783.184 449.903C784.356 449.939 785.403 450.117 787.824 450.38C789.839 450.6 793.458 450.927 795.433 451.134C798.049 451.409 799.056 451.526 800.496 451.637C802.285 451.776 803.463 451.953 805.507 452.026C806.935 452.076 808.818 452.178 809.582 452.23C811.37 452.349 813.448 452.627 814.441 452.699C815.065 452.745 815.717 452.791 816.34 452.822C816.986 452.854 817.717 453.015 818.533 453.138C818.929 453.197 820.179 453.564 821.903 453.972C822.758 454.138 823.492 454.26 824.954 454.433C825.892 454.506 827.226 454.546 828.6 454.588" stroke="black" stroke-linecap="round"/>
<path id="Vector 23" d="M785.182 453.485C785.466 452.858 786.16 451.509 786.629 450.571C787.624 448.586 788.161 447.508 789.199 445.563C789.805 444.429 790.161 443.486 790.509 442.965C790.955 442.296 791.142 441.669 791.498 440.925C792.163 439.586 792.609 438.651 792.969 438.004C793.04 437.891 793.121 437.79 793.266 437.686" stroke="black" stroke-linecap="round"/>
<path id="Vector 24" d="M791.857 453.057C791.938 452.956 792.019 452.855 792.626 451.519C793.234 450.184 794.365 447.617 794.989 446.235C795.833 444.363 796.285 443.73 796.582 443.26C796.974 442.64 797.568 441.145 797.96 440.22C798.348 439.463 798.754 438.691 799.143 438.004C799.225 437.871 799.306 437.75 799.389 437.625" stroke="black" stroke-linecap="round"/>
<path id="Vector 25" d="M798.103 453.914C798.286 453.509 798.734 452.408 798.94 451.783C799.212 450.956 799.713 449.839 800.072 448.956C800.477 447.962 800.879 446.69 801.316 445.845C802.017 444.491 802.326 443.67 802.807 442.985C803.187 442.444 803.713 441.55 804.063 440.679C804.312 440.06 804.716 439.363 804.849 438.851C804.88 438.728 804.92 438.607 804.982 438.454C805.043 438.3 805.124 438.118 805.207 437.931" stroke="black" stroke-linecap="round"/>
<path id="Vector 26" d="M804.227 455.2C804.39 454.875 804.675 454.223 804.94 453.387C805.553 451.453 806.653 448.716 806.982 447.711C807.255 446.876 807.757 445.955 808.135 445.151C808.793 443.746 809.125 442.956 809.431 442.078C810.003 440.832 810.491 439.693 810.982 438.821C811.065 438.667 811.105 438.546 811.147 438.359" stroke="black" stroke-linecap="round"/>
<path id="Vector 27" d="M811.515 455.567C811.838 454.494 812.534 452.164 813.145 450.765C813.466 450.031 813.758 449.202 814.075 448.639C814.387 448.085 815.343 445.466 816.086 443.71C816.635 442.328 817.373 440.402 817.434 440.087C817.455 439.933 817.455 439.791 817.455 439.646" stroke="black" stroke-linecap="round"/>
<path id="Vector 28" d="M817.945 456.363C818.147 455.755 818.637 454.53 818.822 453.957C819.068 453.196 819.453 452.264 819.699 451.62C819.998 450.834 820.372 450.344 820.862 449.569C821.645 448.33 822.312 446.752 822.679 445.926C823.126 444.472 823.863 442.323 824.128 441.661C824.231 441.382 824.272 441.221 824.375 440.87" stroke="black" stroke-linecap="round"/>
<path id="Vector 29" d="M825.048 457.527C825.109 457.122 825.434 455.941 825.954 454.267C826.355 452.978 826.781 451.979 827.139 450.959C827.667 449.453 828.13 448.569 828.801 447.326C829.407 446.204 829.558 445.386 829.895 444.599C830.498 443.281 830.742 442.507 830.997 441.832C831.069 441.648 831.15 441.446 831.294 440.931" stroke="black" stroke-linecap="round"/>
</g>
<g id="Resume">
<path id="Vector_46" d="M753.759 463.937C753.103 473.828 746.257 476.126 738.56 477.581C732.365 478.753 726.164 479.946 720.048 481.46C716.654 482.3 715.4 481.397 714.542 477.98C712.309 469.082 712.179 459.926 710.674 450.951C710.098 447.523 709.652 444.069 708.965 440.663C708.404 437.88 709.202 436.34 712.065 435.505C721.315 432.806 730.464 429.755 739.737 427.142C746.117 425.344 750.973 429.419 751.417 435.893C751.938 443.495 752.931 451.068 753.84 458.639C754.041 460.308 754.269 461.925 753.759 463.937ZM745.6 442.757C745.067 439.316 744.591 435.865 743.982 432.437C743.503 429.745 741.836 428.861 739.234 429.669C730.969 432.232 722.704 434.793 714.435 437.339C711.882 438.125 711.077 439.752 711.724 442.323C712.086 443.763 712.146 445.279 712.355 446.759C713.682 456.114 715.023 465.467 716.335 474.824C716.673 477.229 717.525 479.22 720.408 478.642C729.028 476.916 737.851 476.074 746.101 472.703C748.693 471.643 749.337 470.178 748.851 467.304C747.526 459.46 746.673 451.537 745.6 442.757Z" fill="black"/>
<path id="Vector 30" d="M718.119 471.131C718.37 471.409 718.742 471.807 720.112 473.72C720.743 474.6 721.066 475.205 721.299 475.639C721.479 475.978 721.691 476.296 721.91 476.615C721.97 476.682 722.036 476.735 722.103 476.789" stroke="black" stroke-linecap="round"/>
<path id="Vector 31" d="M718.278 470.812C718.383 470.509 718.676 469.845 719.1 469.386C719.501 468.953 720.003 468.794 720.428 468.674C720.633 468.616 720.841 468.713 721.039 468.845C721.509 469.158 721.558 469.76 721.572 470.332C721.589 471.017 721.373 471.434 721.188 471.82C721 472.212 720.75 472.577 720.411 473.154C720.337 473.281 720.285 473.361 720.323 473.375C720.702 473.516 721.065 472.847 721.629 472.434C722.274 471.963 722.712 471.942 723.739 471.756C724.812 471.742 725.157 471.795 725.356 471.854C725.45 471.888 725.529 471.927 725.769 472.008" stroke="black" stroke-linecap="round"/>
<path id="Vector 32" d="M723.618 468.541C723.96 467.896 724.81 466.302 725.17 465.555C725.579 464.707 725.875 464.279 725.974 464.053C726.02 463.951 726.008 463.854 725.897 463.735C725.324 463.122 724.748 463.136 724.211 463.142C723.551 463.149 723.022 463.757 722.742 464.11C722.405 464.534 722.37 465.243 722.349 466.121C722.337 466.646 722.554 467.064 722.991 467.861C723.493 468.776 724.795 469.045 725.355 469.218C725.729 469.333 726.113 469.338 726.405 469.312C726.975 469.26 727.413 468.545 727.866 467.84C728.133 466.897 728.107 466.046 727.968 465.713C727.934 465.633 727.908 465.554 727.881 465.473" stroke="black" stroke-linecap="round"/>
<path id="Vector 33" d="M726.805 457.384C726.581 457.555 726.076 457.98 725.777 458.531C725.417 459.193 725.424 459.667 725.43 460.251C725.433 460.485 725.583 460.638 725.695 460.764C725.808 460.889 725.968 460.957 726.133 460.997C726.476 461.079 726.804 460.852 727.222 460.699C727.571 460.571 727.866 460.096 728.146 459.597C728.347 459.238 728.464 458.926 728.723 458.693C728.87 458.561 729.049 458.474 729.234 458.434C729.651 458.344 730.269 458.75 730.689 459.228C731.061 459.652 731.042 460.171 731.049 461.272C731.053 461.844 730.671 462.217 730.294 462.583C729.676 462.803 729.118 462.909 728.666 462.91C728.559 462.896 728.48 462.87 728.399 462.843" stroke="black" stroke-linecap="round"/>
<path id="Vector 34" d="M727.841 454.316C728.357 454.607 729.127 455.084 729.718 455.391C730.469 455.78 730.907 456.015 731.333 456.261C731.83 456.548 732.567 456.879 733.086 457.005C733.306 457.059 733.499 456.999 733.658 456.933C734.056 456.767 734.176 456.124 734.263 455.706C734.36 455.236 734.376 454.757 734.317 454.384C734.241 453.912 733.675 453.561 731.186 452.144C730.49 451.755 729.951 451.466 729.633 451.311C729.316 451.155 729.237 451.142 728.997 451.049" stroke="black" stroke-linecap="round"/>
<path id="Vector 35" d="M735.89 451.646C735.522 451.528 734.565 451.13 732.994 450.156C732.419 449.799 731.752 449.048 731.322 448.526C731.037 448.18 731.254 447.611 731.354 447.152C731.403 446.927 731.507 446.746 731.612 446.6C731.848 446.275 732.394 446.188 733.594 446.161C734.194 446.147 734.534 446.32 734.84 446.545C734.916 446.601 734.959 446.678 734.921 446.705C734.605 446.928 733.981 446.297 733.256 445.552C732.823 445.109 732.65 444.317 732.636 443.626C732.627 443.209 732.967 442.908 733.378 442.556C733.853 442.149 735.005 442.322 735.762 442.428C736.146 442.482 736.697 442.64 737.495 442.939C737.748 443.065 737.921 443.146 738.186 443.258C738.371 443.344 738.66 443.488 739.038 443.717" stroke="black" stroke-linecap="round"/>
<path id="Vector 36" d="M737.245 440.051C737.324 439.893 737.457 439.548 737.643 439.163C737.873 438.685 737.975 438.193 738.055 437.749C738.19 436.995 738.281 436.389 738.149 435.908C738.09 435.696 737.831 435.562 737.585 435.45C737.387 435.358 737.114 435.349 736.815 435.369C736.338 435.401 735.958 435.945 735.804 436.311C735.546 436.925 735.77 437.683 735.909 438.144C736.064 438.652 736.394 439.146 736.653 439.499C736.92 439.863 737.415 440.195 738.006 440.634C738.799 441.223 739.393 441.232 739.972 441.267C740.433 441.294 740.71 440.546 740.97 439.98C741.168 439.547 741.15 438.939 741.077 438.432C741.044 438.26 740.978 437.994 740.859 437.61C740.792 437.41 740.713 437.2 740.592 436.903" stroke="black" stroke-linecap="round"/>
</g>
<g id="Sketchbook">
<path id="Vector_47" d="M648.401 442.412C644.443 437.116 645.005 435.168 650.851 432.556C651.579 432.231 652.487 431.87 652.857 431.252C655.829 426.285 660.917 426.229 665.617 426.166C675.244 426.036 684.878 426.6 694.508 426.594C698.678 426.591 700.218 427.952 699.52 432.231C697.488 444.678 695.93 457.182 695 469.778C694.547 475.918 689.933 479.4 683.891 479.22C675.084 478.957 666.278 478.653 657.473 478.329C652.943 478.163 646.047 472.95 644.908 468.766C644.21 466.2 645.55 464.633 647.868 463.791C651.87 462.337 650.922 460.679 648.198 458.733C643.182 455.15 643.189 452.033 648.385 448.553C651.379 446.548 651.108 444.752 648.401 442.412ZM681.765 431.434C674.283 431.804 666.801 432.461 659.311 431.635C657.508 431.436 655.702 431.468 655.461 433.651C655.282 435.274 652.82 437.332 656.112 438.667C657.954 439.414 657.35 441.116 656.419 441.947C652.44 445.501 653.227 449.97 653.515 454.301C654.632 455.188 655.894 453.215 657.303 455.671C653.244 458.688 651.177 463.031 653.142 468.462C654.152 468.449 653.918 465.633 655.91 466.906C657.317 470.263 652.723 471.291 652.84 473.97C653.948 475.759 655.538 475.58 657.006 475.643C665.323 475.998 673.659 476.089 681.95 476.749C687.214 477.169 688.437 474.76 688.726 470.12C689.326 460.506 690.15 450.888 691.369 441.334C692.625 431.484 692.72 431.336 681.765 431.434ZM693.657 452.311C694.445 445.271 697.732 438.491 696.358 430.829C695.575 431.337 695.124 431.462 695.06 431.695C693.12 438.728 694.318 446.123 692.658 453.209C692.546 453.688 693.364 453.391 693.657 452.311ZM651.963 435.213C649.889 434.795 648.847 435.97 648.688 437.757C648.567 439.125 649.316 440.224 651.062 440.096C651.918 438.712 652.869 437.399 651.963 435.213ZM647.366 452.676C646.408 455.173 647.678 455.857 649.828 456.055C650.875 451.235 650.875 451.235 647.366 452.676ZM691.044 471.223C691.133 471.694 691.373 471.781 691.735 471.453C691.854 471.345 691.959 471.187 691.998 471.033C693.076 466.832 693.026 462.595 692.386 458.341C691.951 462.458 691.517 466.575 691.044 471.223Z" fill="black"/>
<path id="Vector 37" d="M663.418 443.021C663.337 442.872 663.014 442.524 662.638 442.281C662.371 442.108 661.812 442.118 661.261 442.239C660.351 442.438 660.038 443.147 659.893 443.528C659.588 444.33 659.84 444.906 659.985 445.242C660.13 445.579 660.475 445.81 660.909 445.978C661.564 446.233 661.923 446.158 662.42 446.222C662.953 446.29 663.52 446.631 663.995 447.18C664.715 448.012 664.241 449.383 664.049 450.006C663.995 450.182 663.813 450.371 663.581 450.585C663.256 450.886 662.038 450.835 661.341 450.778C660.872 450.581 660.387 450.327 659.866 449.94C659.749 449.841 659.657 449.749 659.493 449.515" stroke="black" stroke-linecap="round"/>
<path id="Vector 38" d="M665.988 440.416C665.965 440.967 665.849 442.311 665.808 443.895C665.8 444.212 665.791 444.293 665.785 445.096C665.779 445.9 665.779 447.424 665.774 448.255C665.768 449.086 665.756 449.178 665.745 449.449C665.733 449.719 665.722 450.166 665.71 450.627" stroke="black" stroke-linecap="round"/>
<path id="Vector 39" d="M668.801 442.708C668.331 443.03 667.309 443.749 666.489 444.546C666.093 444.93 665.838 445.174 665.757 445.301C665.58 445.576 666.518 445.613 667.724 446.19C668.123 446.381 668.538 446.651 669.06 447.039C670.221 447.901 671.021 448.703 671.403 449.147C671.578 449.363 671.715 449.558 671.809 449.693C671.903 449.827 671.949 449.896 671.996 449.967" stroke="black" stroke-linecap="round"/>
<path id="Vector 40" d="M671.544 445.278C671.763 445.278 672.341 445.255 672.914 445.14C673.847 444.952 674.412 444.909 674.923 444.775C675.048 444.742 675.188 444.757 675.253 444.717C675.563 444.527 675.122 443.845 674.92 443.399C674.683 442.878 674.324 442.513 673.971 442.281C673.626 442.054 673.11 442.153 672.525 442.302C672.12 442.406 671.87 442.788 671.719 443.048C671.48 443.462 671.464 444.061 671.457 444.656C671.451 445.297 671.648 445.658 671.862 446.099C672.053 446.492 672.296 446.736 672.499 446.996C672.765 447.339 673.221 447.466 673.575 447.559C673.939 447.654 674.298 447.409 674.594 447.224C674.658 447.177 674.715 447.132 674.773 447.079C674.832 447.027 674.889 446.97 675.052 446.772" stroke="black" stroke-linecap="round"/>
<path id="Vector 41" d="M677.31 438.124C677.31 438.239 677.333 438.504 677.367 440.278C677.398 441.845 677.379 444.768 677.385 446.319C677.402 447.962 677.414 448.286 677.42 448.444C677.425 448.373 677.437 447.995 677.449 447.605" stroke="black" stroke-linecap="round"/>
<path id="Vector 42" d="M675.365 440.972C676.088 441.052 677.481 441.215 677.824 441.278C677.899 441.296 677.968 441.307 678.135 441.313C678.303 441.319 678.566 441.319 678.838 441.284" stroke="black" stroke-linecap="round"/>
<path id="Vector 43" d="M683.144 442.604C682.983 442.547 682.544 442.408 681.689 442.407C681.264 442.407 680.992 442.569 680.726 442.846C680.374 443.211 680.262 444.174 680.267 445.331C680.273 446.794 680.781 447.256 681.14 447.587C681.553 447.968 682.32 447.791 682.703 447.664C682.819 447.56 682.97 447.398 683.154 447.213C683.236 447.131 683.294 447.074 683.387 447.015" stroke="black" stroke-linecap="round"/>
<path id="Vector 44" d="M685.714 437.464C685.714 437.487 685.691 438.679 685.639 440.554C685.607 441.715 685.495 442.311 685.454 443.116C685.404 444.111 685.321 444.501 685.234 445.16C685.106 446.127 685.089 447.035 685.055 447.436C685.025 447.78 684.962 447.987 684.91 448.051C684.365 448.723 684.753 445.616 685.105 444.796C685.597 443.648 685.921 443.324 686.211 442.936C686.545 442.488 687.263 442.304 687.687 442.234C688.05 442.173 688.398 442.418 688.7 442.575C688.996 442.728 689.117 443.135 689.193 443.793C689.345 445.112 688.956 445.647 688.529 447.067C688.412 447.407 688.332 447.59 688.279 447.719C688.227 447.848 688.204 447.916 688.18 447.987" stroke="black" stroke-linecap="round"/>
<path id="Vector 45" d="M660.153 456.01C660.153 456.056 660.119 456.251 660.049 457.154C659.993 457.883 659.98 459.168 659.951 459.892C659.917 460.743 659.841 461.548 659.777 462.624C659.747 463.129 659.702 463.463 659.73 463.61C659.824 464.092 659.978 462.38 660.266 461.619C660.637 460.641 661.032 460.063 661.234 459.861C661.982 459.111 663.02 459.24 663.474 459.384C663.876 459.511 664.076 460.37 664.193 460.957C664.344 461.716 664.148 463.203 663.968 463.852C663.845 464.295 663.008 464.965 662.435 465.323C662.034 465.574 661.439 465.399 661.144 465.278C660.781 465.129 660.571 464.879 660.224 464.468C660.039 464.266 659.899 464.114 659.812 463.993C659.771 463.929 659.737 463.86 659.702 463.789" stroke="black" stroke-linecap="round"/>
<path id="Vector 46" d="M668.384 458.545C668.143 458.545 667.472 458.614 666.933 458.914C666.493 459.16 666.313 459.839 666.208 460.47C666.047 461.436 666.426 462.164 666.618 462.608C666.806 463.041 667.444 463.464 668.052 463.852C668.56 464.177 669.169 463.952 669.851 463.623C670.289 463.412 670.525 463.13 670.646 462.963C671.01 462.461 670.954 461.582 670.833 461.036C670.734 460.59 670.48 460.041 670.209 459.727C669.809 459.46 669.118 459.115 668.646 458.945C668.559 458.916 668.456 458.87 668.176 458.788" stroke="black" stroke-linecap="round"/>
<path id="Vector 47" d="M676.441 457.816C676.315 457.804 675.67 457.781 674.985 457.89C674.214 458.013 674 458.636 673.745 459.128C673.473 459.653 673.489 460.955 673.599 461.871C673.667 462.439 674.067 462.804 674.524 463.169C674.982 463.535 675.973 463.442 676.463 463.356C676.926 463.274 677.284 462.727 677.731 462.102C678.255 461.369 678.143 460.703 678.109 460.214C678.082 459.837 677.901 459.473 677.675 459.131C677.31 458.577 676.883 458.362 676.541 458.129C676.454 458.083 676.362 458.037 676.281 457.996C676.199 457.955 676.13 457.921 675.99 457.851" stroke="black" stroke-linecap="round"/>
<path id="Vector 48" d="M679.949 452.329C679.949 452.581 679.949 453.192 679.926 454.07C679.908 454.768 679.776 455.92 679.712 457.286C679.688 457.803 679.66 457.963 679.643 458.785C679.625 459.607 679.614 461.085 679.596 461.893C679.556 462.792 679.521 462.967 679.498 463.128C679.486 463.21 679.475 463.29 679.463 463.442" stroke="black" stroke-linecap="round"/>
<path id="Vector 49" d="M682.901 457.26C682.832 457.398 682.532 457.745 681.695 458.704C681.285 459.172 680.692 459.55 680.493 459.789C680.005 460.373 681.846 460.408 682.286 460.703C682.895 461.111 682.994 461.658 683.155 462.144C683.248 462.642 683.318 463.299 683.306 463.913C683.295 464.147 683.272 464.228 683.179 464.449" stroke="black" stroke-linecap="round"/>
</g>
</g>
</svg>
