<svg width="2360" height="1640" viewBox="0 0 2360 1640" fill="none" xmlns="http://www.w3.org/2000/svg">
<g id="file 1">
<g id="home">
<path id="Vector" d="M478 86C476.704 86.6147 476.297 87.9731 475.459 88.9653C467.061 98.9056 453.024 94.9058 448.44 87.0347C447.946 86.1852 447.472 85.5283 447.48 84.4998C447.521 78.4955 447.5 72.4907 447.5 66.5C452.833 66.5 457.688 66.2151 462.495 66.5717C468.577 67.023 474.469 65.3403 480.501 65.4722C482.48 65.5155 483.485 64.39 484.606 62.5655C491.277 51.7153 487.406 36.7748 478.598 29.8745C469.527 22.7672 459.459 20.2366 448.522 21.6686C441.028 22.6498 434.506 26.4892 429.488 32.49C419.284 44.6938 414.962 58.974 416.682 74.4797C418.657 92.2738 430.102 107.964 449.983 111.595C463.203 114.01 474.932 110.969 485.999 103.998C488.041 102.712 489.985 101.156 490.923 98.9669C491.931 96.6132 492.883 93.9983 492.875 91.5004C492.862 87.4521 488.803 89.6714 486.852 88.8518C484.376 87.8112 481.527 86.343 478.5 86.5" stroke="black" stroke-width="4" stroke-linecap="round" stroke-linejoin="round"/>
<path id="Vector_2" d="M82 47.5001C81.8333 46.6667 81.5487 45.8374 81.5204 44.9994C81.397 41.3496 79.4399 40.9038 76.4986 41.9964C71.7064 43.7767 68.9018 47.7682 69.5 52.0001C70.2049 56.9869 72.5247 58.6151 78.4901 59.5623C87.7581 61.0338 97.0058 62.0046 106.085 65.2626C122.765 71.2479 129.099 86.0628 119.513 103.507C112.502 116.269 102.604 125.931 88.4587 129.851C74.6302 133.683 60.9026 131.91 48.5885 124.356C42.3669 120.539 40.2477 113.629 39.4977 106.5C38.9779 101.559 40.3218 96.815 40.7013 92.1074C46.8397 89.577 52.9876 90.8516 58.9824 90.427C61.0756 99.3958 65.3233 106.364 75.0002 108.499C83.7117 110.421 94.1426 106.133 98.3785 98.4332C99.3283 96.7069 100.406 94.8464 100.619 92.511C101.283 85.2437 97.5759 80.8955 87.9911 78.5361C79.0403 76.3327 69.7597 75.6257 60.9894 72.53C56.1395 70.8182 51.4524 68.9188 47.4923 65.5089C38.1718 57.4834 38.1608 50.2353 41.8171 40.6207C46.6318 27.9602 56.19 18.877 72.4949 19.6131C82.9747 20.0863 91.1389 25.2813 96.4975 34.5015C97.8661 36.8562 97.4479 39.4635 97.4971 42.0001C97.5297 43.6838 96.7773 44.3775 95.0048 44.55C90.2754 45.0104 85.9897 47.1322 81.5 48.5001" stroke="black" stroke-width="4" stroke-linecap="round" stroke-linejoin="round"/>
<path id="Vector_3" d="M359 46.5C357.325 42.4233 359.831 38.5464 359.688 34.4934C359.64 33.1437 359.673 31.4822 360.074 29.88C358.363 29.4146 356.698 28.6421 354.997 28.5535C346.809 28.127 344.047 28.8074 343.539 39.002C342.654 56.7745 339.735 74.323 337.99 91.999C337.448 97.4888 335.661 102.899 336.907 108.5C341.5 108.5 346.003 108.6 350.499 108.466C353.667 108.372 353.584 105.531 353.947 103.491C355.536 94.5565 358.213 86.0311 362.471 77.9847C365.16 72.9034 368.545 68.4804 373.518 65.5313C378.362 62.6591 382.399 64.4332 383.459 70.0077C385.662 81.5816 386.298 93.2831 384.854 104.982C384.589 107.128 385.509 109.514 384 111.5" stroke="black" stroke-width="3" stroke-linecap="round" stroke-linejoin="round"/>
<path id="Vector_4" d="M155.5 224.5C155.667 225.167 156.192 226.211 155.946 226.443C152.241 229.959 153.526 234.813 152.59 239.02C151.649 243.256 152.985 244 157.509 243.6C160.157 243.365 162.713 241.234 165.477 243.105C167.294 239.538 167.7 235.829 167.504 232C166.834 218.905 168.762 205.974 170.088 192.639C154.769 191.733 139.913 194.688 124.75 196.849C124.75 202 124.75 207 124.75 212.122C128.913 213.195 133.171 211.632 137.249 213.259C134.53 220.26 128.972 223.105 122.494 223.333C116.034 223.56 111.921 219.345 109.494 213.503C104.701 201.966 105.116 190.955 112.45 180.465C113.865 178.441 115.583 176.855 117.525 175.537C122.978 171.832 126.739 172.739 133.033 179.033C136.69 174.854 140.283 170.62 144.019 166.517C147.187 163.039 147.467 159.277 144.491 155.507C141.059 151.159 136.104 149.243 130.986 148.611C118.532 147.072 108.096 150.814 99.9243 160.939C90.9657 172.039 85.3718 184.659 83.7489 198.529C82.4342 209.765 83.0646 221.2 89.4305 231.543C95.7307 241.779 105.159 245.646 116.498 246.522C128.647 247.459 138.923 243.288 148.03 235.536C149.311 234.445 151 233.833 152.5 233" stroke="black" stroke-width="4" stroke-linecap="round" stroke-linejoin="round"/>
<path id="Vector_5" d="M155 120C154.965 92.8325 155.407 65.6621 153.804 37.4736C149.667 37.5756 144.84 38.7924 139.996 38.685C138.646 38.6551 137.984 41.061 137.949 42.9991C137.714 56.0008 137.422 69.003 136.972 81.999C136.609 92.5037 136.081 103.005 135.468 113.498C135.12 119.466 135.928 120.721 141.996 120.413C146.185 120.2 150.333 121.925 154.5 120.5" stroke="black" stroke-width="3" stroke-linecap="round" stroke-linejoin="round"/>
<path id="Vector_6" d="M223.5 90.5C227.625 84.5121 231.137 78.0887 236.466 72.9649C238.64 70.875 241.006 68.8878 243.97 69.6225C247.455 70.4864 248.272 74.2279 248.335 77.0037C248.501 84.3225 248.751 91.6544 248.124 99.0105C247.585 105.337 245.662 111.561 246.53 118.068C251.009 117.214 255.477 116.129 260.01 115.584C262.786 115.251 263.717 114.106 263.511 111.499C262.391 97.3545 262.906 83.158 261.782 68.9776C261.016 59.3078 260.81 49.7187 257.495 40.5017C254.252 31.4854 248.226 29.8038 241.034 36.0396C238.904 37.8867 237.109 40.095 235.388 42.4171C233.031 45.5989 231.65 49.2521 229.562 52.5395C228.696 53.9039 228.694 55.8566 226.5 56" stroke="black" stroke-width="3" stroke-linecap="round" stroke-linejoin="round"/>
<path id="Vector_7" d="M402 112.5C403.468 97.1972 405.276 81.8955 404.917 66.502C404.675 56.1274 404.417 45.695 401.996 35.501C400.935 31.0344 399.599 26.8703 395.029 24.4447C389.258 21.3815 382.202 22.2587 375.556 28.0643C370.36 32.6034 366.24 38.1011 362.305 43.867C358.94 48.7987 357.307 53.7917 357 59.5" stroke="black" stroke-width="3" stroke-linecap="round" stroke-linejoin="round"/>
<path id="Vector_8" d="M387.5 126C385.622 126.988 383.744 127.986 381.5 127.499C378.057 126.751 374.86 128.357 371.51 128.629C368.779 128.85 367.569 131.137 367.473 133.999C367.035 147.001 366.624 160.006 365.97 172.998C365.088 190.497 365.171 208.039 363.523 225.502C363.351 227.325 363.5 229.178 363.5 231.382C372.042 231.669 380.059 231.758 388.548 229.905C388.11 223.472 389.311 217.179 391.432 210.977C393.086 206.136 395.723 202.361 399.968 199.453C405.773 195.476 407.21 197.857 408.381 203.027C410.198 211.049 409.684 219.331 409.324 227.492C409.248 229.212 409.443 230.833 409.527 232.687C415.712 230.248 422.009 228.289 428.5 227" stroke="black" stroke-width="4" stroke-linecap="round" stroke-linejoin="round"/>
<path id="Vector_9" d="M193 54.4999C190.517 50.0458 191.48 45.1703 191.638 40.5046C191.733 37.6858 191.874 34.8357 192.017 31.9999C186.5 31.9999 180.999 32.0631 175.5 31.9723C172.898 31.9293 172.523 33.3269 172.465 35.499C172.213 45.0012 171.98 54.5079 171.467 63.9982C170.585 80.3379 169.467 96.6647 168.528 113.002C168.336 116.332 168.5 119.683 168.5 123.54C175.019 123.506 180.975 122.138 187.004 122.411C188.754 122.49 189.761 121.341 190.131 119.021C191.652 109.471 193.363 99.9275 195.605 90.5251C197.133 84.1192 199.732 78.0346 204.973 73.4686C208.045 70.7918 211.535 68.6396 215.458 69.6603C219.489 70.7089 220.039 75.0838 221.576 78.4652C223.052 81.7105 221.263 85.6424 224 88.4999" stroke="black" stroke-width="3" stroke-linecap="round" stroke-linejoin="round"/>
<path id="Vector_10" d="M337.25 180.25C336.5 179.167 335.811 178.034 334.988 177.01C333.155 174.731 330.385 174.754 328.62 176.151C326.727 177.649 326.759 180.141 328.433 182.547C330.744 185.867 334.011 188.035 337.037 190.453C344.528 196.438 350.372 209.433 346.458 217.981C340.022 232.038 320.846 239.24 307.159 228.791C302.413 225.168 298.607 219.542 299.5 212.5" stroke="black" stroke-width="4" stroke-linecap="round" stroke-linejoin="round"/>
<path id="Vector_11" d="M424 227C422.014 216.906 422.524 206.686 422.525 196.5C422.526 187.122 421.613 177.917 418.514 168.995C415.995 161.745 409.711 159.064 403.001 162.502C396.753 165.703 392.996 171.213 389.484 176.99C386.004 182.714 382.677 188.458 383 195.5" stroke="black" stroke-width="3" stroke-linecap="round" stroke-linejoin="round"/>
<path id="Vector_12" d="M230.5 236.5C230.5 224.833 230.694 213.162 230.427 201.502C230.269 194.594 229.73 187.647 227.472 181.009C226.996 179.611 226.311 178.234 225.475 177.017C221.916 171.834 217.775 171.032 212.508 174.512C208.057 177.454 205.414 182.088 202 186" stroke="black" stroke-width="4" stroke-linecap="round" stroke-linejoin="round"/>
<path id="Vector_13" d="M336 182.5C336.687 180.52 338.497 179.645 340.01 178.514C344.615 175.074 345.033 168.672 340.465 165.045C330.967 157.503 316.262 158.518 309.497 171.498C306.132 177.954 306.927 184.493 312.022 189.979C315.716 193.956 319.722 197.62 323.042 201.968C326.586 206.611 326.862 209.021 323.5 211.5C318.986 214.828 315.832 214.255 312.502 209.499C312.157 209.007 311.833 208.5 311.5 208" stroke="black" stroke-width="4" stroke-linecap="round" stroke-linejoin="round"/>
<path id="Vector_14" d="M185 144.5C184.578 152.328 183.489 160.108 184.397 168.012C184.868 172.113 184.114 176.363 184.126 180.5C184.182 200.834 184.667 221.167 185 241.5" stroke="black" stroke-width="3" stroke-linecap="round" stroke-linejoin="round"/>
<path id="Vector_15" d="M226.5 60.5C225.889 52.604 224.005 44.9529 221.412 37.5309C219.828 32.9989 214.01 31.9741 209.507 35.0098C204.761 38.2089 201.598 42.9009 198.607 47.5689C196.847 50.3163 195.808 53.4777 193.588 56.0751C192.13 57.7809 192.044 60.247 193 62.5" stroke="black" stroke-width="3" stroke-linecap="round" stroke-linejoin="round"/>
<path id="Vector_16" d="M384.5 128C384.143 135.666 384.25 143.334 383.815 151.018C383.195 161.939 382.225 173.059 384.5 184" stroke="black" stroke-width="4" stroke-linecap="round" stroke-linejoin="round"/>
<path id="Vector_17" d="M200 192.5C202.037 188.748 200.4 184.837 200.505 181C200.788 170.665 202.063 160.363 201.51 150C201.438 148.649 201.5 147.292 201.5 145.667C195.521 144.899 190.723 148.015 185.5 148.5" stroke="black" stroke-width="4" stroke-linecap="round" stroke-linejoin="round"/>
<path id="Vector_18" d="M217 236.5C219.454 233.976 217.013 231.166 217.216 228.479C217.805 220.667 218.278 212.674 215.554 204.981C214.901 203.135 214.669 200.954 212.486 200.58C210.004 200.153 208.032 201.112 206.432 203.453C202.565 209.112 201.905 215.575 201.617 222.005C201.391 227.065 199.7 231.92 200.848 237.833C195.077 236.631 190.437 238.999 185.5 238.5" stroke="black" stroke-width="4" stroke-linecap="round" stroke-linejoin="round"/>
<path id="Vector_19" d="M269.5 182.5C262.695 184.953 259.912 190.544 258.575 197.015C258.002 199.786 259.346 202.096 261.992 203.515C264.695 204.965 267.453 205.194 269.977 203.466C276.714 198.854 279.381 187.282 270.5 183" stroke="black" stroke-width="4" stroke-linecap="round" stroke-linejoin="round"/>
<path id="Vector_20" d="M450.5 52.5C454.519 52.4003 458.494 52.3023 462.529 51.6965C466.26 51.1363 466.644 49.4898 466.547 46.4985C466.447 43.3943 466.573 40.4619 464.062 37.9386C461.95 35.8169 459.831 36.0035 458.056 37.5634C453.718 41.3745 450.919 46.2026 450 52" stroke="black" stroke-width="4" stroke-linecap="round" stroke-linejoin="round"/>
<path id="Vector_21" d="M138.5 20.5C142.341 26.268 146.291 27.317 149.99 23.4902C152.128 21.2773 154.18 19.0348 151.016 15.9829C148.045 13.1162 143.481 12.4592 141.067 15.062C139.85 16.3733 139.333 18.3333 138.5 20" stroke="black" stroke-width="4" stroke-linecap="round" stroke-linejoin="round"/>
<path id="Vector_22" d="M401.5 108C396.167 108.167 390.833 108.333 385.5 108.5" stroke="black" stroke-width="4" stroke-linecap="round" stroke-linejoin="round"/>
<path id="Vector_23" d="M229.5 233.5C225.833 233.667 222.167 233.833 218.5 234" stroke="black" stroke-width="4" stroke-linecap="round" stroke-linejoin="round"/>
<path id="Vector_24" d="M311.5 206.5C308.503 208.622 304.619 207.786 301.5 209.5" stroke="black" stroke-width="3" stroke-linecap="round" stroke-linejoin="round"/>
<path id="Vector_25" d="M299 32.5C280.255 37.9741 273.086 51.9921 270.306 69.9699C269.101 77.7578 270.689 84.7895 272.528 91.9928C274.983 101.608 286.217 112.766 297.506 111.56C302.519 111.024 307.213 109.492 310.921 106.405C320.084 98.7753 325.7 89.0641 327.609 77.0172C329.681 63.9322 327.974 52.1348 319.572 41.4436C314.316 34.7552 307.653 32.1967 299.5 32.5" stroke="black" stroke-width="4" stroke-linecap="round" stroke-linejoin="round"/>
<path id="Vector_26" d="M271.5 163C253.236 165.298 244.419 182.069 241.575 194.517C239.79 202.331 239.652 210.177 242.415 218.03C245.376 226.445 250.986 231.731 259.523 233.382C265.58 234.553 271.369 231.856 275.891 228.359C290.126 217.354 297.043 197.21 291.973 180.008C289.045 170.076 282.753 163.859 272 163" stroke="black" stroke-width="4" stroke-linecap="round" stroke-linejoin="round"/>
<path id="Vector_27" d="M299 54.5C289.033 57.2981 286.609 69.9767 289.51 76.9957C292.059 83.1625 296.066 84.3796 302.027 81.5573C310.158 77.708 312.514 61.1992 305.521 56.4692C303.65 55.2041 301.835 54.163 299.5 54.5" stroke="black" stroke-width="4" stroke-linecap="round" stroke-linejoin="round"/>
</g>
</g>
</svg>
